<?xml version="1.0" encoding="UTF-8"?>
<svg version="1.1" xmlns="http://www.w3.org/2000/svg" width="2002" height="3301">
<path d="M0 0 C6.96072238 5.56857791 11.82526578 13.56734693 13.53125 22.375 C13.6216677 24.7105286 13.65320807 27.04852568 13.65150452 29.38580322 C13.65235894 30.09159193 13.65321337 30.79738063 13.65409368 31.52455688 C13.65574058 33.88911844 13.65024005 36.25360904 13.64477539 38.61816406 C13.64449332 40.31331379 13.64465164 42.00846363 13.6452179 43.70361328 C13.6455051 48.30654608 13.6396207 52.90945289 13.63264394 57.51237965 C13.6263977 62.32235902 13.62580559 67.13233897 13.62461853 71.94232178 C13.62150897 81.05118111 13.61330062 90.16002846 13.60326904 99.26888251 C13.59209628 109.63878843 13.58659452 120.00869492 13.58157361 130.37860537 C13.57111771 151.7107436 13.5535255 173.04287105 13.53125 194.375 C14.83479935 194.36611755 16.13834869 194.35723511 17.48139954 194.3480835 C29.79533785 194.26682533 42.10922142 194.20695185 54.4233675 194.16775131 C60.75346914 194.14692008 67.08335347 194.11868366 73.41333008 194.07324219 C79.52767751 194.02962578 85.64181655 194.00582935 91.7563076 193.99549103 C94.08338893 193.98812802 96.41045948 193.97375003 98.73745155 193.95207977 C102.00921468 193.92283645 105.28012815 193.91905281 108.55200195 193.92089844 C109.97944733 193.89932678 109.97944733 193.89932678 111.43572998 193.87731934 C122.1942426 193.9425409 130.63412871 197.42904073 138.36328125 204.86328125 C143.56122202 210.88540002 146.6609517 217.90676099 146.65150452 225.88018799 C146.65287918 226.77758698 146.65425385 227.67498596 146.65567017 228.59957886 C146.65207489 229.57637604 146.64847961 230.55317322 146.64477539 231.55957031 C146.64492142 232.5940329 146.64506744 233.62849548 146.6452179 234.69430542 C146.64452117 238.11393327 146.63673994 241.53350666 146.62890625 244.953125 C146.62704122 247.32395396 146.62561772 249.69478331 146.62461853 252.06561279 C146.62080006 258.30616316 146.61097545 264.54669027 146.59991455 270.78723145 C146.58968606 277.1550261 146.58511782 283.5228245 146.58007812 289.890625 C146.56935262 302.38542689 146.55228419 314.88021151 146.53125 327.375 C147.63001465 327.35928955 148.7287793 327.3435791 149.86083984 327.32739258 C153.97957889 327.27264801 158.0982865 327.23848972 162.21728516 327.21020508 C163.99207996 327.19521907 165.76683837 327.17482318 167.54150391 327.14868164 C181.080168 326.95440143 192.71755432 327.1771439 203.53125 336.375 C210.29715125 343.6431734 213.70468467 351.83596433 213.61123115 361.79088116 C213.60363795 362.87405025 213.59604475 363.95721933 213.58822146 365.07321173 C213.5746215 366.2598592 213.56102155 367.44650667 213.54700947 368.66911316 C213.53666944 369.93753947 213.52632941 371.20596578 213.51567605 372.51282924 C213.49287395 375.30749402 213.46677607 378.10210259 213.43822167 380.89671445 C213.39152161 385.4766962 213.35243774 390.05672577 213.31427497 394.63678551 C213.25748758 401.37269125 213.1975446 408.10856247 213.1356678 414.84442329 C212.97336081 432.57192038 212.83196446 450.29959433 212.6919492 468.02727948 C212.67619076 470.02043055 212.6603777 472.01358119 212.64451139 474.00673141 C212.38719887 506.33093058 212.19165423 538.65508242 212.04753113 570.97998047 C212.0427919 572.0371369 212.03805267 573.09429332 212.03316982 574.18348479 C211.93538026 596.03620823 211.84502251 617.88895795 211.76289567 639.7417458 C211.71632254 652.11966848 211.66752699 664.49758135 211.61694336 676.87548828 C211.61240192 677.99589839 211.60786048 679.11630849 211.60318141 680.27067041 C211.45509532 716.55784597 211.16658949 752.84226865 210.80598671 789.12790133 C210.43586715 826.44832106 210.21120613 863.76691453 210.16681855 901.08920893 C210.16046684 906.36787566 210.15244889 911.64653864 210.14340782 916.92520142 C210.14167786 917.96402596 210.1399479 919.0028505 210.13816551 920.07315458 C210.1061233 936.75159279 209.92189513 953.42499363 209.67955905 970.10155685 C209.43881711 986.8912354 209.35992512 1003.67562904 209.44287238 1020.46687883 C209.48335853 1029.55724952 209.45364585 1038.63376876 209.22229195 1047.72164726 C206.75807464 1083.23201544 206.75807464 1083.23201544 218.74595046 1114.99596405 C227.6352809 1123.80848188 238.4745472 1129.48350732 249.86789838 1134.40316784 C259.92562406 1138.75829262 268.61094556 1144.77018672 277.51395128 1151.10072064 C281.87919035 1154.17749238 286.31762743 1157.14615196 290.75 1160.125 C291.74644531 1160.79789063 292.74289062 1161.47078125 293.76953125 1162.1640625 C303.64024987 1168.81001898 313.58454915 1175.34356111 323.53125 1181.875 C343.10142728 1194.72570069 362.53443762 1207.77275887 381.91563416 1220.90649414 C387.31922066 1224.56576188 392.74804423 1228.18314559 398.20727539 1231.7590332 C405.63862302 1236.92639216 410.97699144 1243.76762562 413.08256963 1252.71873821 C413.51983148 1255.30740048 413.65593676 1257.68242073 413.6554485 1260.30487615 C413.65769579 1261.27936897 413.65994308 1262.2538618 413.66225848 1263.25788471 C413.65963146 1264.32286978 413.65700445 1265.38785485 413.65429783 1266.48511219 C413.65545167 1267.62546853 413.65660552 1268.76582487 413.65779433 1269.94073746 C413.65999027 1273.11566521 413.65768637 1276.29055354 413.65351619 1279.46547816 C413.65008433 1282.91583122 413.65245235 1286.366181 413.65409368 1289.8165347 C413.6561688 1295.86679486 413.65452129 1301.9170452 413.65045547 1307.96730423 C413.64442651 1316.96385243 413.64411911 1325.96039442 413.64499746 1334.95694428 C413.64631219 1350.08973488 413.6429668 1365.22252111 413.63698006 1380.35531044 C413.63106625 1395.34210545 413.62721476 1410.32889864 413.62612724 1425.31569481 C413.6260585 1426.24697615 413.62598976 1427.17825748 413.62591894 1428.13775947 C413.62558062 1432.86712486 413.62527923 1437.59649024 413.62499207 1442.32585564 C413.62289077 1475.83776242 413.61615094 1509.34966682 413.60668945 1542.86157227 C413.59750744 1575.42114245 413.59042264 1607.98071198 413.58618164 1640.5402832 C413.58605011 1641.54363115 413.58591859 1642.54697909 413.58578308 1643.58073151 C413.58446457 1653.65661816 413.58318876 1663.73250481 413.58194422 1673.80839146 C413.5794079 1694.33475999 413.57658664 1714.86112848 413.57359314 1735.38749695 C413.57345585 1736.33129905 413.57331856 1737.27510116 413.57317711 1738.24750333 C413.56397398 1801.29000321 413.54812849 1864.33250177 413.53125 1927.375 C414.82227127 1927.36611755 416.11329254 1927.35723511 417.44343567 1927.3480835 C429.6396443 1927.26682169 441.83579764 1927.20695012 454.03221607 1927.16775131 C460.30178467 1927.14692099 466.57113383 1927.11868628 472.84057617 1927.07324219 C478.89656911 1927.02962247 484.95235163 1927.00582866 491.00848961 1926.99549103 C493.31324257 1926.9881286 495.61798466 1926.97375178 497.92264748 1926.95207977 C501.1632799 1926.922832 504.40305462 1926.91905298 507.64379883 1926.92089844 C508.58607834 1926.90651733 509.52835785 1926.89213623 510.49919128 1926.87731934 C520.74245006 1926.93999873 530.05035152 1930.27142754 537.53125 1937.375 C545.13907652 1945.55341351 547.16829994 1953.83472415 546.87109375 1964.87890625 C545.93331105 1974.52621108 542.01451427 1982.15906274 534.53125 1988.375 C527.47829488 1992.67006882 521.19892682 1995.49932529 512.92324855 1995.50108917 C511.77067072 1995.50375888 510.61809289 1995.50642859 509.43058846 1995.5091792 C508.16021694 1995.50702473 506.88984542 1995.50487026 505.5809778 1995.5026505 C504.21346548 1995.50389291 502.84595349 1995.50557341 501.47844219 1995.50765286 C497.69365034 1995.51212216 493.90888282 1995.51031723 490.12409029 1995.50755108 C486.00134486 1995.50563522 481.87860427 1995.50950651 477.75586015 1995.51264787 C470.49334673 1995.51737197 463.23084013 1995.51834338 455.96832542 1995.51691952 C445.0959622 1995.5148036 434.22360607 1995.51840434 423.35124395 1995.5231343 C404.82456575 1995.53101941 386.29788947 1995.53409693 367.77120972 1995.53458023 C348.98658784 1995.53508207 330.20196812 1995.53772337 311.41734695 1995.54298782 C310.232512 1995.54331796 309.04767704 1995.54364809 307.82693799 1995.54398823 C303.00157035 1995.54533818 298.17620271 1995.54670084 293.35083507 1995.54808033 C240.25170061 1995.56323361 187.15256633 1995.57002401 134.05343013 1995.5745023 C133.04577533 1995.57458733 133.04577533 1995.57458733 132.01776386 1995.57467409 C128.61984128 1995.57496061 125.22191871 1995.57524564 121.82399613 1995.5755282 C93.3633513 1995.57790271 64.9027067 1995.58161225 36.44206205 1995.5855653 C22.81521955 1995.58745785 9.18837704 1995.58928635 -4.43846548 1995.5910995 C-5.1161745 1995.59118969 -5.79388353 1995.59127988 -6.4921292 1995.5913728 C-39.1101111 1995.59570914 -71.72809305 1995.59963745 -104.34607506 1995.60309982 C-105.04188819 1995.6031737 -105.73770132 1995.60324757 -106.4545997 1995.60332368 C-150.80208989 1995.60801904 -195.14958 1995.61084182 -239.4970704 1995.6124866 C-243.13334905 1995.61262218 -246.76962769 1995.61276121 -250.40590634 1995.61290014 C-256.23579857 1995.61312262 -262.0656908 1995.61334399 -267.89558303 1995.61356402 C-268.97922421 1995.61360493 -268.97922421 1995.61360493 -270.08475714 1995.61364666 C-271.54484409 1995.61370177 -273.00493103 1995.61375688 -274.46501798 1995.61381199 C-284.7072142 1995.61419861 -294.94941042 1995.61458655 -305.19160664 1995.61498112 C-308.85649144 1995.61512223 -312.52137624 1995.6152623 -316.18626105 1995.61540002 C-385.40774466 1995.61800439 -454.62922603 1995.62333549 -523.85070801 1995.63928223 C-524.57946266 1995.63945002 -525.3082173 1995.63961781 -526.05905543 1995.63979069 C-548.8285956 1995.6450414 -571.5981357 1995.65061575 -594.36767578 1995.65625 C-617.73055328 1995.6620309 -641.09343079 1995.66776141 -664.45630836 1995.67320633 C-665.17564866 1995.67337414 -665.89498895 1995.67354194 -666.63612744 1995.67371484 C-711.6809735 1995.68420648 -756.72581894 1995.69106919 -801.77066612 1995.69407272 C-802.46629058 1995.69411953 -803.16191504 1995.69416635 -803.87861903 1995.69421458 C-834.4276616 1995.69626515 -864.97670415 1995.6975093 -895.52574678 1995.69786063 C-907.81544439 1995.6980039 -920.105142 1995.69824257 -932.39483961 1995.69852469 C-934.43256052 1995.69857022 -936.47028144 1995.69861187 -938.50800236 1995.6986528 C-969.68412998 1995.69929905 -1000.86025504 1995.70225979 -1032.03638124 1995.71211338 C-1032.70890961 1995.71232575 -1033.38143797 1995.71253812 -1034.07434597 1995.71275693 C-1044.8931267 1995.7161858 -1055.71190736 1995.71979874 -1066.53068802 1995.72343333 C-1110.84968716 1995.73831511 -1155.16867708 1995.74390188 -1199.48767845 1995.73569075 C-1205.51393248 1995.73457531 -1211.54018652 1995.73356466 -1217.56644058 1995.73261642 C-1219.33847192 1995.73233147 -1219.33847192 1995.73233147 -1221.14630187 1995.73204076 C-1239.8809469 1995.72930302 -1258.61557394 1995.7366622 -1277.35021506 1995.74818979 C-1295.75512993 1995.75930576 -1314.16001927 1995.75978681 -1332.56493453 1995.74881961 C-1343.36607928 1995.74270564 -1354.16714711 1995.74486435 -1364.96828468 1995.75907158 C-1372.13353556 1995.76768199 -1379.2987296 1995.76549459 -1386.46397692 1995.75437287 C-1390.53104963 1995.74836677 -1394.59797108 1995.747079 -1398.66503399 1995.75905773 C-1402.35622015 1995.76984231 -1406.04712809 1995.76678573 -1409.73830102 1995.75276506 C-1411.68304838 1995.74891129 -1413.62780809 1995.75972551 -1415.57252543 1995.77119615 C-1426.62949634 1995.70333575 -1435.90308164 1993.66074091 -1444.46875 1986.375 C-1451.80048815 1978.49898434 -1454.83817704 1969.73688246 -1454.6796875 1959.0546875 C-1453.96845574 1950.01940991 -1450.20725375 1941.78604618 -1443.546875 1935.5859375 C-1436.76678344 1930.25121429 -1429.59076605 1927.24431495 -1420.88127136 1927.25474548 C-1419.99091187 1927.25337082 -1419.10055237 1927.25199615 -1418.18321228 1927.25057983 C-1417.21936111 1927.25417511 -1416.25550995 1927.25777039 -1415.26245117 1927.26147461 C-1414.23759613 1927.26132858 -1413.21274109 1927.26118256 -1412.15682983 1927.2610321 C-1408.77510448 1927.26172782 -1405.39343446 1927.2695043 -1402.01171875 1927.27734375 C-1399.66473928 1927.27920914 -1397.31775942 1927.28063247 -1394.97077942 1927.28163147 C-1388.79764732 1927.28544711 -1382.6245388 1927.29526929 -1376.45141602 1927.30633545 C-1370.15055663 1927.31657004 -1363.84969343 1927.32113348 -1357.54882812 1927.32617188 C-1345.18879173 1927.33689239 -1332.82877283 1927.3539574 -1320.46875 1927.375 C-1320.46968588 1926.54263785 -1320.46968588 1926.54263785 -1320.47064067 1925.69346029 C-1320.53842116 1865.28416604 -1320.60124352 1804.87486758 -1320.63812256 1744.46554565 C-1320.63867479 1743.56328446 -1320.63922702 1742.66102327 -1320.63979598 1741.73142082 C-1320.65176739 1722.12322037 -1320.66284815 1702.51501951 -1320.67301132 1682.90681804 C-1320.6780007 1673.29106871 -1320.68318691 1663.67531948 -1320.68847656 1654.05957031 C-1320.6889996 1653.10268374 -1320.68952263 1652.14579716 -1320.69006152 1651.15991402 C-1320.70710926 1620.14013638 -1320.73715626 1589.12038787 -1320.77393888 1558.10062788 C-1320.81166674 1526.22585705 -1320.83629119 1494.35110234 -1320.84440996 1462.47630955 C-1320.84556259 1457.97501926 -1320.84686514 1453.47372903 -1320.84825897 1448.97243881 C-1320.84866351 1447.64355097 -1320.84866351 1447.64355097 -1320.84907622 1446.28781691 C-1320.85380451 1432.0224089 -1320.87236059 1417.75705071 -1320.89607814 1403.49166303 C-1320.91962305 1389.15282429 -1320.92862293 1374.81403499 -1320.92275551 1360.4751776 C-1320.91971143 1351.95444201 -1320.92783982 1343.43388726 -1320.95194017 1334.91318429 C-1320.96694193 1329.22074823 -1320.96740314 1323.52843057 -1320.95607725 1317.83598632 C-1320.9500397 1314.59280454 -1320.95250403 1311.35003353 -1320.96828273 1308.1068746 C-1320.9843103 1304.60968688 -1320.97569811 1301.1133867 -1320.96094131 1297.61621284 C-1320.97144937 1296.61409755 -1320.98195742 1295.61198226 -1320.9927839 1294.57949984 C-1320.8960344 1284.44846085 -1317.64201767 1276.69583408 -1310.69140625 1269.35546875 C-1301.64351819 1261.29346656 -1292.0831455 1260.68115227 -1280.46386719 1261.19580078 C-1276.21740177 1261.57721361 -1272.99309239 1263.07338864 -1269.46875 1265.375 C-1268.77523438 1265.7875 -1268.08171875 1266.2 -1267.3671875 1266.625 C-1260.01488027 1271.47146469 -1255.71776919 1278.96399016 -1253.46875 1287.375 C-1253.18101706 1290.9534643 -1253.20400632 1294.52001246 -1253.22265434 1298.10840416 C-1253.22034665 1299.19588638 -1253.21803897 1300.28336861 -1253.21566135 1301.40380484 C-1253.21034535 1305.06706487 -1253.21935888 1308.73015095 -1253.22824097 1312.3934021 C-1253.22736923 1315.03845722 -1253.22570333 1317.68350096 -1253.22306263 1320.3285538 C-1253.21891532 1326.08921674 -1253.22220243 1331.84983837 -1253.23033905 1337.61049652 C-1253.24240433 1346.17639008 -1253.2430111 1354.74225757 -1253.24125507 1363.30815808 C-1253.23862651 1377.71703693 -1253.24531298 1392.12589745 -1253.25728989 1406.53477097 C-1253.26911987 1420.80343084 -1253.27682096 1435.07208309 -1253.27899551 1449.34074783 C-1253.27913299 1450.22759733 -1253.27927047 1451.11444684 -1253.27941212 1452.02817056 C-1253.28008877 1456.53194555 -1253.28069155 1461.03572054 -1253.28126587 1465.53949554 C-1253.28546781 1497.4480478 -1253.29894566 1529.35659008 -1253.31787109 1561.26513672 C-1253.33623683 1592.26578722 -1253.35040559 1623.26643499 -1253.35888672 1654.26708984 C-1253.35914977 1655.22249647 -1253.35941282 1656.1779031 -1253.35968385 1657.16226144 C-1253.36232086 1666.75675965 -1253.3648725 1676.35125789 -1253.36736157 1685.94575614 C-1253.37243413 1705.49123218 -1253.37807663 1725.03670805 -1253.38406372 1744.58218384 C-1253.38447559 1745.93021759 -1253.38447559 1745.93021759 -1253.38489578 1747.30548436 C-1253.39334275 1774.85391581 -1253.40420564 1802.40234558 -1253.41744995 1829.95077515 C-1253.41782507 1830.73297714 -1253.41820018 1831.51517913 -1253.41858667 1832.32108422 C-1253.43381808 1864.00572359 -1253.45160535 1895.69036162 -1253.46875 1927.375 C-1209.57875 1927.375 -1165.68875 1927.375 -1120.46875 1927.375 C-1120.46875 1685.815 -1120.46875 1444.255 -1120.46875 1195.375 C-1177.22875 1195.375 -1233.98875 1195.375 -1292.46875 1195.375 C-1304.55325312 1191.74964906 -1312.69192926 1186.57554971 -1318.84375 1175.5625 C-1322.13456118 1167.41913673 -1321.92153793 1157.08757711 -1319.36328125 1148.7890625 C-1314.58981874 1138.62785812 -1307.90981216 1132.4372782 -1297.46875 1128.375 C-1293.38401951 1127.35377103 -1289.5406987 1127.25167983 -1285.33769226 1127.25474548 C-1284.63104913 1127.25389106 -1283.924406 1127.25303663 -1283.19634944 1127.25215632 C-1280.8348938 1127.25051273 -1278.47350962 1127.25600449 -1276.11206055 1127.26147461 C-1274.41676332 1127.26175675 -1272.72146598 1127.26159822 -1271.02616882 1127.2610321 C-1266.42742731 1127.26074518 -1261.82871187 1127.26662507 -1257.22997642 1127.27360606 C-1252.42267219 1127.27985694 -1247.61536736 1127.28044477 -1242.80805969 1127.28163147 C-1233.70631684 1127.28473966 -1224.60458601 1127.29294617 -1215.50284845 1127.30298096 C-1205.14017434 1127.31415797 -1194.77749966 1127.31965655 -1184.41482103 1127.32467639 C-1163.09945732 1127.33512919 -1141.78410441 1127.35271875 -1120.46875 1127.375 C-1120.47026888 1126.3035049 -1120.47178776 1125.23200979 -1120.47335267 1124.12804514 C-1120.54002804 1076.90625278 -1120.60173921 1029.68445738 -1120.63812256 982.46263123 C-1120.63867479 981.74772707 -1120.63922702 981.03282291 -1120.63979598 980.29625499 C-1120.65176758 964.75950215 -1120.66284831 949.22274879 -1120.67301132 933.68599466 C-1120.67800067 926.06678604 -1120.68318688 918.44757756 -1120.68847656 910.82836914 C-1120.6889996 910.07016588 -1120.68952263 909.31196263 -1120.69006152 908.53078351 C-1120.70710724 883.95475265 -1120.73715271 859.37875857 -1120.77393888 834.80275 C-1120.81167246 809.54793442 -1120.83629252 784.2931392 -1120.84440996 759.03829591 C-1120.84556258 755.47131544 -1120.84686513 751.90433504 -1120.84825897 748.33735466 C-1120.84866351 747.2843042 -1120.84866351 747.2843042 -1120.84907622 746.20998 C-1120.85380329 734.90867637 -1120.87235605 723.60743567 -1120.89607814 712.30615771 C-1120.91963123 700.94484095 -1120.92829704 689.5836055 -1120.92275551 678.22225846 C-1120.92018908 672.066286 -1120.92417202 665.91049831 -1120.9455719 659.75455856 C-1120.96501843 654.1194515 -1120.96603207 648.48465369 -1120.95234558 642.84953248 C-1120.95065369 640.81034867 -1120.95574374 638.77114566 -1120.96828273 636.7319997 C-1120.98433986 633.95964048 -1120.97568123 631.188397 -1120.96094131 628.41605473 C-1120.97144937 627.62469036 -1120.98195742 626.833326 -1120.9927839 626.0179809 C-1120.88548232 617.08449262 -1116.7281951 608.70103494 -1110.46875 602.375 C-1102.35354791 596.41415938 -1095.09716597 594.05781575 -1085.1328125 594.1796875 C-1083.81378433 594.18393234 -1083.81378433 594.18393234 -1082.46810913 594.18826294 C-1079.67651406 594.19940288 -1076.8852471 594.22449589 -1074.09375 594.25 C-1072.19401507 594.2600378 -1070.29427508 594.26916225 -1068.39453125 594.27734375 C-1063.75247893 594.29932194 -1059.11066998 594.3338089 -1054.46875 594.375 C-1054.47874275 592.43513718 -1054.47874275 592.43513718 -1054.48893738 590.45608521 C-1054.54985747 578.24482629 -1054.59477499 566.03359838 -1054.62418652 553.82222176 C-1054.63981577 547.544828 -1054.66100418 541.26755731 -1054.69506836 534.99023438 C-1054.72775923 528.92777172 -1054.74562361 522.86542717 -1054.75338173 516.80288315 C-1054.75890777 514.49452736 -1054.76969866 512.18617774 -1054.78594017 509.87787247 C-1054.80784343 506.63475018 -1054.8107115 503.39211061 -1054.80932617 500.14892578 C-1054.82550491 498.7301136 -1054.82550491 498.7301136 -1054.8420105 497.28263855 C-1054.7902916 486.03046257 -1051.64375725 477.77212982 -1043.83984375 469.6875 C-1036.9578071 463.30045903 -1029.02271355 460.88361345 -1019.86801147 459.82527161 C-1018.4753494 459.64687047 -1018.4753494 459.64687047 -1017.05455273 459.46486527 C-1013.95244363 459.07096773 -1010.8482426 458.69728376 -1007.74365234 458.32348633 C-1005.4936878 458.04202604 -1003.2438796 457.75931358 -1000.99421597 457.47545815 C-994.8213542 456.70020321 -988.64643975 455.94255211 -982.47105813 455.18767047 C-976.49937087 454.45479113 -970.52938653 453.70837634 -964.55935214 452.96218369 C-952.36125245 451.43798128 -940.16159346 449.92663059 -927.96096802 448.42279053 C-910.54565465 446.27610263 -893.1323167 444.11370205 -875.71942623 441.94745851 C-869.52370468 441.17672054 -863.32794474 440.40629117 -857.13218031 439.63589793 C-855.56897614 439.44152545 -854.00577296 439.24714495 -852.44257077 439.05275649 C-841.32753273 437.67061606 -830.21217994 436.29103079 -819.09661543 434.91313118 C-776.66203382 429.6525773 -734.23526269 424.33282639 -691.81443024 418.96255302 C-682.60137788 417.79623401 -673.38808568 416.6318169 -664.17474365 415.4677887 C-662.66254395 415.2767188 -661.15034455 415.08564652 -659.63814545 414.89457184 C-653.65846755 414.13901127 -647.67878801 413.38346363 -641.69909763 412.62800181 C-637.28784742 412.07067532 -632.87661277 411.51322588 -628.46539307 410.95565796 C-627.74302342 410.86435234 -627.02065377 410.77304672 -626.27639413 410.67897426 C-614.67634617 409.2125691 -603.0770403 407.74036699 -591.47796427 406.2662962 C-579.82494914 404.78554176 -568.1710019 403.31230714 -556.51617008 401.84591967 C-550.21564908 401.05294928 -543.91559276 400.25667002 -537.61662865 399.45141792 C-531.84949478 398.71417268 -526.08127432 397.98613412 -520.31207585 397.26522863 C-518.23312097 397.00381046 -516.15458072 396.73906723 -514.07653117 396.47054732 C-477.58113566 391.76116705 -477.58113566 391.76116705 -465.12890625 401.13671875 C-459.28553594 406.50130266 -455.00665864 413.53584853 -453.46875 421.375 C-453.37828667 423.72318904 -453.34679264 426.07383677 -453.34849548 428.42376709 C-453.34764106 429.13363935 -453.34678663 429.84351161 -453.34590632 430.57489514 C-453.34425935 432.95327609 -453.34976008 435.33158649 -453.35522461 437.70996094 C-453.35550668 439.41496275 -453.35534837 441.11996469 -453.3547821 442.82496643 C-453.35449489 447.45475782 -453.3603794 452.08452336 -453.36735606 456.71430874 C-453.37360219 461.55231534 -453.3741944 466.39032251 -453.37538147 471.22833252 C-453.37849106 480.39031577 -453.38669946 489.55228711 -453.39673096 498.71426511 C-453.40790362 509.14462938 -453.41340546 519.57499422 -453.41842639 530.00536299 C-453.42888236 551.46191531 -453.44647463 572.91845691 -453.46875 594.375 C-452.31463623 594.35405273 -451.16052246 594.33310547 -449.97143555 594.31152344 C-445.64213736 594.23848973 -441.31289231 594.19297251 -436.9831543 594.15527344 C-435.11815193 594.13530105 -433.25321102 594.10811332 -431.38842773 594.07324219 C-417.68617999 593.82364325 -405.94835911 593.95506813 -395.48046875 603.953125 C-389.43630855 611.22958971 -386.34255538 619.32459428 -386.34570217 628.67685318 C-386.34371112 629.98064053 -386.34172007 631.28442788 -386.33966869 632.62772393 C-386.34252177 634.07800835 -386.34546737 635.52829259 -386.34849548 636.97857666 C-386.34805955 638.5164548 -386.34718424 640.05433286 -386.34590632 641.59221053 C-386.34366566 645.82456805 -386.34767681 650.05690036 -386.35268438 654.28925467 C-386.35699481 658.8509175 -386.35554203 663.41257887 -386.3547821 667.97424316 C-386.35425725 675.87976672 -386.35740007 683.78528204 -386.36301994 691.69080353 C-386.3711401 703.12092144 -386.37375069 714.55103536 -386.37500793 725.98115584 C-386.37719764 744.52487438 -386.38385553 763.06858853 -386.39331055 781.61230469 C-386.40248676 799.62792946 -386.40956657 817.64355305 -386.41381836 835.65917969 C-386.41408108 836.76929115 -386.41434381 837.87940261 -386.41461449 839.02315381 C-386.41591951 844.59214577 -386.41718322 850.16113774 -386.41842639 855.73012972 C-386.42879647 901.94508952 -386.44641259 948.16004454 -386.46875 994.375 C-385.16520065 994.36611755 -383.86165131 994.35723511 -382.51860046 994.3480835 C-370.20466215 994.26682533 -357.89077858 994.20695185 -345.5766325 994.16775131 C-339.24653086 994.14692008 -332.91664653 994.11868366 -326.58666992 994.07324219 C-320.47232249 994.02962578 -314.35818345 994.00582935 -308.2436924 993.99549103 C-305.91661107 993.98812802 -303.58954052 993.97375003 -301.26254845 993.95207977 C-297.99078532 993.92283645 -294.71987185 993.91905281 -291.44799805 993.92089844 C-290.4963678 993.90651733 -289.54473755 993.89213623 -288.56427002 993.87731934 C-277.8057574 993.9425409 -269.36587129 997.42904073 -261.63671875 1004.86328125 C-254.61671933 1012.99636166 -253.09391306 1021.32302075 -253.19140625 1031.765625 C-253.83047991 1040.08258366 -257.67763119 1047.41769014 -263.46875 1053.375 C-330.13790669 1107.23697578 -434.76058884 1061.375 -520.46875 1061.375 C-520.46875 1347.155 -520.46875 1632.935 -520.46875 1927.375 C-454.46875 1927.375 -388.46875 1927.375 -320.46875 1927.375 C-320.5001709 1903.96079102 -320.5315918 1880.54658203 -320.56396484 1856.42285156 C-320.58406235 1840.78916471 -320.60405863 1825.1554782 -320.62265015 1809.52178955 C-320.62442615 1808.03207412 -320.62442615 1808.03207412 -320.62623803 1806.51226342 C-320.665984 1773.08311191 -320.69749 1739.65395792 -320.72280884 1706.22479248 C-320.72363718 1705.13390257 -320.72446552 1704.04301266 -320.72531897 1702.91906548 C-320.74327607 1679.2115527 -320.75989721 1655.50403916 -320.77514198 1631.79652448 C-320.78262605 1620.17050183 -320.79040536 1608.54447938 -320.79833984 1596.91845703 C-320.7991244 1595.76152305 -320.79990895 1594.60458907 -320.80071728 1593.41259649 C-320.82628907 1555.90754252 -320.87135969 1518.40254276 -320.92653332 1480.89752163 C-320.98312464 1442.35885206 -321.02006168 1403.8202125 -321.03223994 1365.28150208 C-321.03396889 1359.83919538 -321.03592271 1354.39688878 -321.03801346 1348.95458221 C-321.038418 1347.88344967 -321.03882253 1346.81231712 -321.03923933 1345.70872601 C-321.04633188 1328.46078817 -321.07416626 1311.21294306 -321.1097422 1293.96504304 C-321.14505891 1276.62848571 -321.15855958 1259.29202038 -321.14975826 1241.95542833 C-321.145192 1231.65318048 -321.15738579 1221.35126915 -321.19353526 1211.04908201 C-321.21603697 1204.16659637 -321.2167305 1197.28433106 -321.19974088 1190.4018302 C-321.19068389 1186.48051443 -321.19106186 1182.55983499 -321.21804909 1178.6385875 C-321.24244784 1175.06624818 -321.2388594 1171.49503769 -321.21358985 1167.92271439 C-321.20732891 1166.04269749 -321.23034998 1164.16265129 -321.25480086 1162.28278297 C-321.13544483 1152.21058117 -317.94463226 1144.01078319 -311.21875 1136.4375 C-303.47420413 1129.39856831 -294.60063391 1127.01692856 -284.37109375 1127.16796875 C-274.47025157 1127.87421994 -267.38302681 1132.10663775 -260.6796875 1139.29296875 C-253.71231347 1147.89063966 -253.02979703 1156.77888026 -253.09960651 1167.55465794 C-253.09614498 1168.87015539 -253.09268345 1170.18565285 -253.08911702 1171.54101387 C-253.07993983 1175.18856721 -253.08941004 1178.83586837 -253.10195142 1182.48340285 C-253.11227766 1186.45296669 -253.10513714 1190.42250562 -253.10021895 1194.39207453 C-253.09400312 1201.34775926 -253.09891984 1208.30336696 -253.11113358 1215.25904274 C-253.12924444 1225.60185069 -253.13014045 1235.9446101 -253.12750761 1246.28743101 C-253.12356635 1263.68597501 -253.13358847 1281.08448482 -253.15155983 1298.48301888 C-253.16930895 1315.71054313 -253.18085728 1332.93805314 -253.18411827 1350.16558647 C-253.18432449 1351.23661388 -253.18453071 1352.30764128 -253.18474318 1353.41112406 C-253.18575817 1358.85029814 -253.18666232 1364.28947223 -253.1875238 1369.72864633 C-253.19382557 1408.25750243 -253.21403915 1446.78633993 -253.24243164 1485.31518555 C-253.26998328 1522.74617415 -253.29118421 1560.17715762 -253.30395508 1597.6081543 C-253.304767 1599.9618087 -253.30557912 1602.31546311 -253.30639142 1604.66911751 C-253.3129577 1623.79344728 -253.31908545 1642.91777718 -253.32510687 1662.04210713 C-253.35327034 1750.48642237 -253.41348126 1838.93068909 -253.46875 1927.375 C-121.79875 1927.375 9.87125 1927.375 145.53125 1927.375 C145.53125 1905.595 145.53125 1883.815 145.53125 1861.375 C131.60659546 1861.4064209 131.60659546 1861.4064209 117.40063477 1861.43847656 C87.69333997 1861.50268549 57.98604489 1861.54717371 28.27869872 1861.57926132 C23.66374493 1861.5842641 19.04879136 1861.5894414 14.43383789 1861.59472656 C13.05571506 1861.59630043 13.05571506 1861.59630043 11.64975136 1861.59790608 C-3.22367879 1861.61530813 -18.09704705 1861.64684472 -32.9704405 1861.68361118 C-48.23355759 1861.72102617 -63.49664229 1861.74323703 -78.75980335 1861.75135398 C-88.17691102 1861.75684059 -97.59384376 1861.77416542 -107.01089758 1861.80666587 C-113.46979556 1861.82782063 -119.9286032 1861.83419787 -126.3875333 1861.82900551 C-130.11323346 1861.82644522 -133.83862809 1861.83035136 -137.56427383 1861.8518219 C-141.60757772 1861.87495237 -145.65023311 1861.8669385 -149.69358826 1861.85601807 C-151.45188301 1861.87349512 -151.45188301 1861.87349512 -153.24569887 1861.89132524 C-160.21849947 1861.84041538 -165.37666553 1860.81035637 -171.46875 1857.375 C-172.26667969 1856.92898438 -173.06460937 1856.48296875 -173.88671875 1856.0234375 C-181.00127389 1850.90347066 -185.14520896 1843.77143239 -187.46875 1835.375 C-188.52054474 1825.16280691 -187.53279912 1816.15240587 -181.55078125 1807.6484375 C-175.84829887 1800.80545864 -169.26542549 1796.20502293 -160.46875 1794.375 C-158.71347344 1794.28634046 -156.95515738 1794.25123306 -155.19764328 1794.25195217 C-154.12376004 1794.24996112 -153.0498768 1794.24797007 -151.94345164 1794.24591869 C-150.76447283 1794.24883153 -149.58549402 1794.25174437 -148.37078857 1794.25474548 C-146.49131149 1794.25346385 -146.49131149 1794.25346385 -144.57386518 1794.25215632 C-141.09400946 1794.24991771 -137.61418446 1794.253924 -134.13433266 1794.25893438 C-130.38249334 1794.26324776 -126.63065579 1794.26179182 -122.8788147 1794.2610321 C-116.37783141 1794.26050743 -109.87685815 1794.26364831 -103.37587738 1794.26926994 C-93.9765193 1794.27739263 -84.57716607 1794.28000095 -75.17780486 1794.28125793 C-59.92842966 1794.28344724 -44.6790598 1794.29010405 -29.4296875 1794.29956055 C-14.61523465 1794.30873779 0.19921675 1794.3158171 15.01367188 1794.32006836 C16.3831265 1794.32046244 16.3831265 1794.32046244 17.78024688 1794.32086449 C22.36029014 1794.32216952 26.94033341 1794.32343323 31.52037668 1794.32467639 C69.52400587 1794.33504523 107.52762517 1794.35348152 145.53125 1794.375 C145.53125 1772.595 145.53125 1750.815 145.53125 1728.375 C131.71318481 1728.4064209 131.71318481 1728.4064209 117.6159668 1728.43847656 C88.12572653 1728.50270485 58.63548598 1728.54718202 29.14519392 1728.57926132 C24.56286022 1728.58426402 19.98052674 1728.58944132 15.39819336 1728.59472656 C14.0298293 1728.59630043 14.0298293 1728.59630043 12.63382152 1728.59790608 C-2.12832683 1728.61530136 -16.89041275 1728.64683421 -31.65252409 1728.68361118 C-46.80490959 1728.72104502 -61.95726243 1728.74324102 -77.10969228 1728.75135398 C-86.45616306 1728.75683668 -95.80245733 1728.77414023 -105.14887377 1728.80666587 C-111.56199902 1728.82784392 -117.9750333 1728.83419261 -124.38819096 1728.82900551 C-128.08578623 1728.82644883 -131.7830735 1728.83030985 -135.48061371 1728.8518219 C-139.49694438 1728.87501697 -143.5126242 1728.86692129 -147.52900696 1728.85601807 C-149.26689034 1728.87349512 -149.26689034 1728.87349512 -151.03988248 1728.89132524 C-162.42878037 1728.8079444 -171.05483326 1725.81803597 -179.30078125 1717.88671875 C-186.32078067 1709.75363834 -187.84358694 1701.42697925 -187.74609375 1690.984375 C-187.10702009 1682.66741634 -183.25986881 1675.33230986 -177.46875 1669.375 C-168.66821438 1662.26505201 -161.1414606 1661.07979703 -150.05435181 1661.13449097 C-148.79149113 1661.13278212 -147.52863045 1661.13107327 -146.22750127 1661.12931263 C-142.72932652 1661.12484671 -139.23127455 1661.13283236 -135.73311543 1661.14286876 C-131.95813459 1661.15151185 -128.18316057 1661.14858249 -124.40817261 1661.14706421 C-117.87010688 1661.1460159 -111.3320811 1661.15228684 -104.79402542 1661.16353989 C-95.34111945 1661.17979927 -85.88823278 1661.18500334 -76.43531434 1661.18751587 C-61.09830408 1661.19189228 -45.76131511 1661.20519994 -30.42431641 1661.22412109 C-15.52653103 1661.24248128 -0.62875144 1661.25663711 14.26904297 1661.26513672 C15.64667041 1661.26592489 15.64667041 1661.26592489 17.05212872 1661.26672898 C21.65959882 1661.26933907 26.26706897 1661.27186648 30.87453914 1661.27435279 C69.09346166 1661.29508362 107.31234482 1661.33195249 145.53125 1661.375 C145.53125 1639.595 145.53125 1617.815 145.53125 1595.375 C136.34949951 1595.39594727 127.16774902 1595.41689453 117.70776367 1595.43847656 C88.3143186 1595.50270519 58.92087323 1595.54718216 29.52737619 1595.57926132 C24.96006376 1595.58426402 20.39275156 1595.58944132 15.82543945 1595.59472656 C14.91618736 1595.5957758 14.00693527 1595.59682505 13.07013009 1595.59790608 C-1.64351943 1595.61530124 -16.3571063 1595.64683403 -31.07071868 1595.68361118 C-46.17338362 1595.72104536 -61.2760158 1595.74324109 -76.37872523 1595.75135398 C-85.6944868 1595.75683662 -95.01007128 1595.77413979 -104.32577833 1595.80666587 C-110.71787886 1595.82784433 -117.10988812 1595.83419251 -123.50202117 1595.82900551 C-127.18746524 1595.8264489 -130.87260029 1595.83030911 -134.55798912 1595.8518219 C-138.56118325 1595.87501811 -142.56372442 1595.866921 -146.56697083 1595.85601807 C-148.29901779 1595.87349512 -148.29901779 1595.87349512 -150.0660556 1595.89132524 C-160.9229071 1595.81158429 -170.47829174 1592.96243076 -178.46875 1585.375 C-186.07657652 1577.19658649 -188.10579994 1568.91527585 -187.80859375 1557.87109375 C-186.87081105 1548.22378892 -182.95201427 1540.59093726 -175.46875 1534.375 C-168.58633452 1530.18378545 -162.30778856 1527.24862929 -154.21326065 1527.25195217 C-153.14286081 1527.24996112 -152.07246096 1527.24797007 -150.96962476 1527.24591869 C-149.79453689 1527.24883153 -148.61944903 1527.25174437 -147.40875244 1527.25474548 C-146.15985127 1527.25389106 -144.9109501 1527.25303663 -143.62420344 1527.25215632 C-140.15574926 1527.24991775 -136.6873259 1527.25392395 -133.21887565 1527.25893438 C-129.47930638 1527.26324781 -125.7397389 1527.26179182 -122.00016785 1527.2610321 C-115.52046547 1527.26050744 -109.04077315 1527.26364827 -102.5610733 1527.26926994 C-93.19248431 1527.27739267 -83.82390018 1527.28000096 -74.45530805 1527.28125793 C-59.25584714 1527.28344723 -44.05639159 1527.29010403 -28.85693359 1527.29956055 C-14.09098335 1527.30873781 0.67496545 1527.31581711 15.44091797 1527.32006836 C16.35090073 1527.32033108 17.26088348 1527.32059381 18.19844148 1527.32086449 C22.76350066 1527.32216952 27.32855986 1527.32343323 31.89361906 1527.32467639 C69.77283414 1527.33504521 107.65203929 1527.35348148 145.53125 1527.375 C145.53125 1505.595 145.53125 1483.815 145.53125 1461.375 C131.60659546 1461.4064209 131.60659546 1461.4064209 117.40063477 1461.43847656 C87.69333997 1461.50268549 57.98604489 1461.54717371 28.27869872 1461.57926132 C23.66374493 1461.5842641 19.04879136 1461.5894414 14.43383789 1461.59472656 C13.05571506 1461.59630043 13.05571506 1461.59630043 11.64975136 1461.59790608 C-3.22367879 1461.61530813 -18.09704705 1461.64684472 -32.9704405 1461.68361118 C-48.23355759 1461.72102617 -63.49664229 1461.74323703 -78.75980335 1461.75135398 C-88.17691102 1461.75684059 -97.59384376 1461.77416542 -107.01089758 1461.80666587 C-113.46979556 1461.82782063 -119.9286032 1461.83419787 -126.3875333 1461.82900551 C-130.11323346 1461.82644522 -133.83862809 1461.83035136 -137.56427383 1461.8518219 C-141.60757772 1461.87495237 -145.65023311 1461.8669385 -149.69358826 1461.85601807 C-151.45188301 1461.87349512 -151.45188301 1461.87349512 -153.24569887 1461.89132524 C-160.21849947 1461.84041538 -165.37666553 1460.81035637 -171.46875 1457.375 C-172.26667969 1456.92898438 -173.06460937 1456.48296875 -173.88671875 1456.0234375 C-181.00127389 1450.90347066 -185.14520896 1443.77143239 -187.46875 1435.375 C-188.52054474 1425.16280691 -187.53279912 1416.15240587 -181.55078125 1407.6484375 C-175.84829887 1400.80545864 -169.26542549 1396.20502293 -160.46875 1394.375 C-158.71347344 1394.28634046 -156.95515738 1394.25123306 -155.19764328 1394.25195217 C-154.12376004 1394.24996112 -153.0498768 1394.24797007 -151.94345164 1394.24591869 C-150.76447283 1394.24883153 -149.58549402 1394.25174437 -148.37078857 1394.25474548 C-146.49131149 1394.25346385 -146.49131149 1394.25346385 -144.57386518 1394.25215632 C-141.09400946 1394.24991771 -137.61418446 1394.253924 -134.13433266 1394.25893438 C-130.38249334 1394.26324776 -126.63065579 1394.26179182 -122.8788147 1394.2610321 C-116.37783141 1394.26050743 -109.87685815 1394.26364831 -103.37587738 1394.26926994 C-93.9765193 1394.27739263 -84.57716607 1394.28000095 -75.17780486 1394.28125793 C-59.92842966 1394.28344724 -44.6790598 1394.29010405 -29.4296875 1394.29956055 C-14.61523465 1394.30873779 0.19921675 1394.3158171 15.01367188 1394.32006836 C16.3831265 1394.32046244 16.3831265 1394.32046244 17.78024688 1394.32086449 C22.36029014 1394.32216952 26.94033341 1394.32343323 31.52037668 1394.32467639 C69.52400587 1394.33504523 107.52762517 1394.35348152 145.53125 1394.375 C145.53125 1372.595 145.53125 1350.815 145.53125 1328.375 C131.71318481 1328.4064209 131.71318481 1328.4064209 117.6159668 1328.43847656 C88.12572653 1328.50270485 58.63548598 1328.54718202 29.14519392 1328.57926132 C24.56286022 1328.58426402 19.98052674 1328.58944132 15.39819336 1328.59472656 C14.0298293 1328.59630043 14.0298293 1328.59630043 12.63382152 1328.59790608 C-2.12832683 1328.61530136 -16.89041275 1328.64683421 -31.65252409 1328.68361118 C-46.80490959 1328.72104502 -61.95726243 1328.74324102 -77.10969228 1328.75135398 C-86.45616306 1328.75683668 -95.80245733 1328.77414023 -105.14887377 1328.80666587 C-111.56199902 1328.82784392 -117.9750333 1328.83419261 -124.38819096 1328.82900551 C-128.08578623 1328.82644883 -131.7830735 1328.83030985 -135.48061371 1328.8518219 C-139.49694438 1328.87501697 -143.5126242 1328.86692129 -147.52900696 1328.85601807 C-149.26689034 1328.87349512 -149.26689034 1328.87349512 -151.03988248 1328.89132524 C-162.42878037 1328.8079444 -171.05483326 1325.81803597 -179.30078125 1317.88671875 C-186.32078067 1309.75363834 -187.84358694 1301.42697925 -187.74609375 1290.984375 C-187.10702009 1282.66741634 -183.25986881 1275.33230986 -177.46875 1269.375 C-168.66821438 1262.26505201 -161.1414606 1261.07979703 -150.05435181 1261.13449097 C-148.79149113 1261.13278212 -147.52863045 1261.13107327 -146.22750127 1261.12931263 C-142.72932652 1261.12484671 -139.23127455 1261.13283236 -135.73311543 1261.14286876 C-131.95813459 1261.15151185 -128.18316057 1261.14858249 -124.40817261 1261.14706421 C-117.87010688 1261.1460159 -111.3320811 1261.15228684 -104.79402542 1261.16353989 C-95.34111945 1261.17979927 -85.88823278 1261.18500334 -76.43531434 1261.18751587 C-61.09830408 1261.19189228 -45.76131511 1261.20519994 -30.42431641 1261.22412109 C-15.52653103 1261.24248128 -0.62875144 1261.25663711 14.26904297 1261.26513672 C15.64667041 1261.26592489 15.64667041 1261.26592489 17.05212872 1261.26672898 C21.65959882 1261.26933907 26.26706897 1261.27186648 30.87453914 1261.27435279 C69.09346166 1261.29508362 107.31234482 1261.33195249 145.53125 1261.375 C145.53125 1239.595 145.53125 1217.815 145.53125 1195.375 C136.34949951 1195.39594727 127.16774902 1195.41689453 117.70776367 1195.43847656 C88.3143186 1195.50270519 58.92087323 1195.54718216 29.52737619 1195.57926132 C24.96006376 1195.58426402 20.39275156 1195.58944132 15.82543945 1195.59472656 C14.91618736 1195.5957758 14.00693527 1195.59682505 13.07013009 1195.59790608 C-1.64351943 1195.61530124 -16.3571063 1195.64683403 -31.07071868 1195.68361118 C-46.17338362 1195.72104536 -61.2760158 1195.74324109 -76.37872523 1195.75135398 C-85.6944868 1195.75683662 -95.01007128 1195.77413979 -104.32577833 1195.80666587 C-110.71787886 1195.82784433 -117.10988812 1195.83419251 -123.50202117 1195.82900551 C-127.18746524 1195.8264489 -130.87260029 1195.83030911 -134.55798912 1195.8518219 C-138.56118325 1195.87501811 -142.56372442 1195.866921 -146.56697083 1195.85601807 C-148.29901779 1195.87349512 -148.29901779 1195.87349512 -150.0660556 1195.89132524 C-160.9229071 1195.81158429 -170.47829174 1192.96243076 -178.46875 1185.375 C-186.07657652 1177.19658649 -188.10579994 1168.91527585 -187.80859375 1157.87109375 C-186.87081105 1148.22378892 -182.95201427 1140.59093726 -175.46875 1134.375 C-168.58633452 1130.18378545 -162.30778856 1127.24862929 -154.21326065 1127.25195217 C-153.14286081 1127.24996112 -152.07246096 1127.24797007 -150.96962476 1127.24591869 C-149.79453689 1127.24883153 -148.61944903 1127.25174437 -147.40875244 1127.25474548 C-146.15985127 1127.25389106 -144.9109501 1127.25303663 -143.62420344 1127.25215632 C-140.15574926 1127.24991775 -136.6873259 1127.25392395 -133.21887565 1127.25893438 C-129.47930638 1127.26324781 -125.7397389 1127.26179182 -122.00016785 1127.2610321 C-115.52046547 1127.26050744 -109.04077315 1127.26364827 -102.5610733 1127.26926994 C-93.19248431 1127.27739267 -83.82390018 1127.28000096 -74.45530805 1127.28125793 C-59.25584714 1127.28344723 -44.05639159 1127.29010403 -28.85693359 1127.29956055 C-14.09098335 1127.30873781 0.67496545 1127.31581711 15.44091797 1127.32006836 C16.35090073 1127.32033108 17.26088348 1127.32059381 18.19844148 1127.32086449 C22.76350066 1127.32216952 27.32855986 1127.32343323 31.89361906 1127.32467639 C69.77283414 1127.33504521 107.65203929 1127.35348148 145.53125 1127.375 C145.53125 1105.595 145.53125 1083.815 145.53125 1061.375 C131.60659546 1061.4064209 131.60659546 1061.4064209 117.40063477 1061.43847656 C87.69333997 1061.50268549 57.98604489 1061.54717371 28.27869872 1061.57926132 C23.66374493 1061.5842641 19.04879136 1061.5894414 14.43383789 1061.59472656 C13.05571506 1061.59630043 13.05571506 1061.59630043 11.64975136 1061.59790608 C-3.22367879 1061.61530813 -18.09704705 1061.64684472 -32.9704405 1061.68361118 C-48.23355759 1061.72102617 -63.49664229 1061.74323703 -78.75980335 1061.75135398 C-88.17691102 1061.75684059 -97.59384376 1061.77416542 -107.01089758 1061.80666587 C-113.46979556 1061.82782063 -119.9286032 1061.83419787 -126.3875333 1061.82900551 C-130.11323346 1061.82644522 -133.83862809 1061.83035136 -137.56427383 1061.8518219 C-141.60757772 1061.87495237 -145.65023311 1061.8669385 -149.69358826 1061.85601807 C-151.45188301 1061.87349512 -151.45188301 1061.87349512 -153.24569887 1061.89132524 C-160.21849947 1061.84041538 -165.37666553 1060.81035637 -171.46875 1057.375 C-172.26667969 1056.92898438 -173.06460937 1056.48296875 -173.88671875 1056.0234375 C-181.00127389 1050.90347066 -185.14520896 1043.77143239 -187.46875 1035.375 C-188.52054474 1025.16280691 -187.53279912 1016.15240587 -181.55078125 1007.6484375 C-175.84829887 1000.80545864 -169.26542549 996.20502293 -160.46875 994.375 C-158.71347344 994.28634046 -156.95515738 994.25123306 -155.19764328 994.25195217 C-154.12376004 994.24996112 -153.0498768 994.24797007 -151.94345164 994.24591869 C-150.76447283 994.24883153 -149.58549402 994.25174437 -148.37078857 994.25474548 C-147.11780385 994.25389106 -145.86481913 994.25303663 -144.57386518 994.25215632 C-141.09400946 994.24991771 -137.61418446 994.253924 -134.13433266 994.25893438 C-130.38249334 994.26324776 -126.63065579 994.26179182 -122.8788147 994.2610321 C-116.37783141 994.26050743 -109.87685815 994.26364831 -103.37587738 994.26926994 C-93.9765193 994.27739263 -84.57716607 994.28000095 -75.17780486 994.28125793 C-59.92842966 994.28344724 -44.6790598 994.29010405 -29.4296875 994.29956055 C-14.61523465 994.30873779 0.19921675 994.3158171 15.01367188 994.32006836 C16.3831265 994.32046244 16.3831265 994.32046244 17.78024688 994.32086449 C22.36029014 994.32216952 26.94033341 994.32343323 31.52037668 994.32467639 C69.52400587 994.33504523 107.52762517 994.35348152 145.53125 994.375 C145.53125 972.595 145.53125 950.815 145.53125 928.375 C140.0411026 928.38388245 134.5509552 928.39276489 128.8944397 928.4019165 C78.55687516 928.48150081 28.21931806 928.54122227 -22.11829563 928.57926132 C-28.71476883 928.58426419 -35.31124187 928.58944147 -41.90771484 928.59472656 C-43.87758594 928.59630043 -43.87758594 928.59630043 -45.88725241 928.59790608 C-67.15539174 928.61531464 -88.42348786 928.64685484 -109.69160156 928.68361118 C-131.5121866 928.72100801 -153.332749 928.7432332 -175.15336478 928.75135398 C-188.61948954 928.75684434 -202.08549215 928.77418968 -215.55157931 928.80666587 C-224.78388126 928.82779818 -234.01611998 928.83420293 -243.24844436 928.82900551 C-248.57621806 928.82644176 -253.90377819 928.83039139 -259.23151398 928.8518219 C-264.11109913 928.87130637 -268.99032735 928.87225755 -273.86992903 928.85859558 C-275.63322495 928.85690738 -277.39654327 928.86196541 -279.15979521 928.87453273 C-291.94480969 928.96034204 -302.87914027 927.69708843 -312.46875 918.375 C-320.389783 908.57052137 -321.60676543 898.61313455 -320.46875 886.375 C-318.70865083 877.77502175 -313.27481777 870.68163776 -306.08984375 865.73828125 C-299.95784363 862.21263373 -295.15151882 861.22533477 -288.08929825 861.25195217 C-286.96551599 861.2502214 -286.96551599 861.2502214 -285.81903106 861.24845567 C-283.29455411 861.24579702 -280.77014023 861.25030503 -278.2456665 861.25474548 C-276.42317717 861.25430963 -274.6006879 861.25343446 -272.77819896 861.25215632 C-267.75913434 861.24991417 -262.74009095 861.25392885 -257.72102904 861.25893438 C-252.31273253 861.26324268 -246.90443727 861.26179218 -241.49613953 861.2610321 C-232.12223272 861.26050711 -222.74833286 861.26365135 -213.3744278 861.26926994 C-199.82124276 861.27738826 -186.26806109 861.28000051 -172.71487388 861.28125793 C-150.72706896 861.28344793 -128.73926775 861.2901066 -106.75146484 861.29956055 C-85.38916025 861.30873602 -64.02685693 861.31581619 -42.66455078 861.32006836 C-40.69022955 861.32046244 -40.69022955 861.32046244 -38.67602304 861.32086449 C-32.07313016 861.3221695 -25.47023727 861.32343322 -18.86734438 861.32467639 C35.93218978 861.33504737 90.73171941 861.352939 145.53125 861.375 C145.53125 839.595 145.53125 817.815 145.53125 795.375 C140.06615875 795.38166183 134.6010675 795.38832367 128.97036743 795.39518738 C78.86227578 795.45487589 28.75418833 795.49966685 -21.35393109 795.52819599 C-27.92036168 795.53194814 -34.48679219 795.5358311 -41.05322266 795.53979492 C-42.36048882 795.54058185 -43.66775499 795.54136878 -45.01463528 795.54217956 C-66.18576674 795.55523589 -87.35687378 795.57889101 -108.52799074 795.60645839 C-130.24913587 795.63450623 -151.9702682 795.65117495 -173.69143069 795.65726548 C-187.09611336 795.6613832 -200.500727 795.67439198 -213.90538843 795.6987494 C-223.0956349 795.71459889 -232.28584564 795.71940213 -241.47610478 795.71550413 C-246.77953882 795.71358138 -252.08285218 795.71654313 -257.3862648 795.73261642 C-262.24359553 795.74723022 -267.10072456 795.74794266 -271.95806463 795.73769668 C-273.71328211 795.7364306 -275.46851224 795.74022353 -277.22370486 795.74964955 C-291.19270416 795.82029295 -301.74439617 794.79642488 -312.15625 784.74609375 C-319.29903202 777.04974612 -321.14013321 769.48019601 -321.07983398 759.18701172 C-320.69812156 750.15533947 -317.24394309 743.13533935 -311.21875 736.4375 C-303.59046986 729.50424094 -295.08070895 727.21359811 -285.01310253 727.25195217 C-284.26782564 727.25079833 -283.52254874 727.24964448 -282.7546877 727.24845567 C-280.24953728 727.2458022 -277.74445073 727.25030075 -275.23930359 727.25474548 C-273.4283256 727.25430952 -271.61734767 727.25343416 -269.80637008 727.25215632 C-264.82376947 727.24991625 -259.84119027 727.25392601 -254.85859239 727.25893438 C-249.48780529 727.26324566 -244.11701943 727.26179197 -238.74623108 727.2610321 C-229.43891297 727.2605073 -220.13160186 727.26364957 -210.82428551 727.26926994 C-197.36740373 727.27739082 -183.91052535 727.28000077 -170.45364139 727.28125793 C-148.62168023 727.28344753 -126.7897228 727.29010511 -104.95776367 727.29956055 C-83.74780292 727.30873706 -62.53784319 727.31581672 -41.32788086 727.32006836 C-39.36739519 727.32046244 -39.36739519 727.32046244 -37.36730375 727.32086449 C-30.81063372 727.32216951 -24.25396368 727.32343322 -17.69729364 727.32467639 C36.71222362 727.33504612 91.12173633 727.3529368 145.53125 727.375 C145.53125 705.595 145.53125 683.815 145.53125 661.375 C137.27723679 661.38832367 137.27723679 661.38832367 128.85647583 661.4019165 C78.40417179 661.48150062 27.95187518 661.54122218 -22.5004779 661.57926132 C-29.11197237 661.58426419 -35.72346669 661.58944147 -42.33496094 661.59472656 C-43.65119895 661.5957758 -44.96743696 661.59682505 -46.32356097 661.59790608 C-67.64020118 661.61531469 -88.95679082 661.64685491 -110.27340697 661.68361118 C-132.14371256 661.72100787 -154.01399556 661.74323317 -175.88433182 661.75135398 C-189.38116593 661.75684437 -202.87787816 661.77418987 -216.37467475 661.80666587 C-225.62800145 661.827798 -234.88126507 661.83420297 -244.13461415 661.82900551 C-249.47453926 661.82644174 -254.81425128 661.83039171 -260.15413857 661.8518219 C-265.044826 661.87130598 -269.93515731 661.8722578 -274.82586123 661.85859558 C-276.59319479 661.85690735 -278.3605507 661.86196571 -280.12784038 661.87453273 C-293.00772032 661.96077945 -302.78977043 660.78120189 -312.48828125 651.59765625 C-320.55028344 642.54976819 -321.16259773 632.9893955 -320.64794922 621.37011719 C-320.26653639 617.12365177 -318.77036136 613.89934239 -316.46875 610.375 C-316.05625 609.68148437 -315.64375 608.98796875 -315.21875 608.2734375 C-310.32833949 600.85446246 -302.8968982 596.76129565 -294.46875 594.375 C-291.89347739 594.19563848 -289.43071207 594.10932484 -286.85881996 594.12890434 C-286.10901247 594.12659665 -285.35920499 594.12428897 -284.58667606 594.12191135 C-282.07206822 594.11661403 -279.55771606 594.12559318 -277.04312134 594.13449097 C-275.22303024 594.13361885 -273.40293938 594.13186774 -271.58284986 594.12931263 C-266.57968138 594.12483641 -261.57659838 594.13284662 -256.57344079 594.14286876 C-251.17881284 594.15149696 -245.7841898 594.14858354 -240.38955688 594.14706421 C-231.04241415 594.14601496 -221.69529932 594.15229575 -212.3481636 594.16353989 C-198.83373845 594.17978649 -185.3193268 594.18500203 -171.80489294 594.18751587 C-149.87919832 594.19189429 -127.95351857 594.20520739 -106.02783203 594.22412109 C-84.72770123 594.24247609 -63.42757839 594.25663446 -42.12744141 594.26513672 C-40.81473969 594.26566217 -39.50203798 594.26618761 -38.14955743 594.26672898 C-31.56418991 594.26933904 -24.97882236 594.27186646 -18.39345479 594.27435279 C36.2481243 594.29508987 90.88968522 594.33086942 145.53125 594.375 C145.53125 572.595 145.53125 550.815 145.53125 528.375 C140.0411026 528.38388245 134.5509552 528.39276489 128.8944397 528.4019165 C78.55687516 528.48150081 28.21931806 528.54122227 -22.11829563 528.57926132 C-28.71476883 528.58426419 -35.31124187 528.58944147 -41.90771484 528.59472656 C-43.87758594 528.59630043 -43.87758594 528.59630043 -45.88725241 528.59790608 C-67.15539174 528.61531464 -88.42348786 528.64685484 -109.69160156 528.68361118 C-131.5121866 528.72100801 -153.332749 528.7432332 -175.15336478 528.75135398 C-188.61948954 528.75684434 -202.08549215 528.77418968 -215.55157931 528.80666587 C-224.78388126 528.82779818 -234.01611998 528.83420293 -243.24844436 528.82900551 C-248.57621806 528.82644176 -253.90377819 528.83039139 -259.23151398 528.8518219 C-264.11109913 528.87130637 -268.99032735 528.87225755 -273.86992903 528.85859558 C-275.63322495 528.85690738 -277.39654327 528.86196541 -279.15979521 528.87453273 C-291.94480969 528.96034204 -302.87914027 527.69708843 -312.46875 518.375 C-320.389783 508.57052137 -321.60676543 498.61313455 -320.46875 486.375 C-318.70865083 477.77502175 -313.27481777 470.68163776 -306.08984375 465.73828125 C-299.95784363 462.21263373 -295.15151882 461.22533477 -288.08929825 461.25195217 C-286.96551599 461.2502214 -286.96551599 461.2502214 -285.81903106 461.24845567 C-283.29455411 461.24579702 -280.77014023 461.25030503 -278.2456665 461.25474548 C-276.42317717 461.25430963 -274.6006879 461.25343446 -272.77819896 461.25215632 C-267.75913434 461.24991417 -262.74009095 461.25392885 -257.72102904 461.25893438 C-252.31273253 461.26324268 -246.90443727 461.26179218 -241.49613953 461.2610321 C-232.12223272 461.26050711 -222.74833286 461.26365135 -213.3744278 461.26926994 C-199.82124276 461.27738826 -186.26806109 461.28000051 -172.71487388 461.28125793 C-150.72706896 461.28344793 -128.73926775 461.2901066 -106.75146484 461.29956055 C-85.38916025 461.30873602 -64.02685693 461.31581619 -42.66455078 461.32006836 C-40.69022955 461.32046244 -40.69022955 461.32046244 -38.67602304 461.32086449 C-32.07313016 461.3221695 -25.47023727 461.32343322 -18.86734438 461.32467639 C35.93218978 461.33504737 90.73171941 461.352939 145.53125 461.375 C145.53125 439.595 145.53125 417.815 145.53125 395.375 C135.4544017 395.38499275 135.4544017 395.38499275 125.17398071 395.39518738 C80.80962576 395.43817946 36.44527162 395.47782058 -7.9190979 395.50202942 C-8.67615613 395.50244359 -9.43321435 395.50285776 -10.21321374 395.50328448 C-26.66619488 395.51226324 -43.1191763 395.52057378 -59.57215812 395.52819599 C-67.64071615 395.53193799 -75.70927411 395.53582765 -83.77783203 395.53979492 C-84.9822087 395.54038334 -84.9822087 395.54038334 -86.21091621 395.54098364 C-112.23500234 395.55376729 -138.25906894 395.57630094 -164.28314324 395.60389166 C-191.02663489 395.63219361 -217.77011573 395.6506573 -244.51362211 395.65674497 C-248.29110073 395.65760943 -252.06857932 395.65858634 -255.84605789 395.65963173 C-256.58951862 395.659834 -257.33297935 395.66003627 -258.09896919 395.66024467 C-270.06582201 395.66378958 -282.03264139 395.67770314 -293.99948057 395.6954961 C-306.03068856 395.71316343 -318.0618634 395.71990253 -330.0930839 395.71550413 C-336.61166199 395.7134235 -343.13016106 395.7165626 -349.6487236 395.73261642 C-355.61629618 395.74720612 -361.58370451 395.74795824 -367.55128463 395.73769668 C-369.71026718 395.73642825 -371.86925994 395.74024154 -374.02822237 395.74964955 C-376.96439059 395.76170047 -379.89996699 395.75519229 -382.83612633 395.74414349 C-383.67299404 395.75202453 -384.50986175 395.75990557 -385.37208909 395.76802543 C-396.24274228 395.67568181 -404.37875785 392.25353409 -412.15625 384.74609375 C-419.29903202 377.04974612 -421.14013321 369.48019601 -421.07983398 359.18701172 C-420.69812156 350.15533947 -417.24394309 343.13533935 -411.21875 336.4375 C-403.39610966 329.32758911 -394.77720879 327.21560655 -384.48211193 327.25195217 C-383.67943033 327.25079833 -382.87674873 327.24964448 -382.04974344 327.24845567 C-379.34931894 327.24580039 -376.64895358 327.25030226 -373.9485321 327.25474548 C-371.99731091 327.25430956 -370.04608978 327.25343426 -368.09486896 327.25215632 C-362.72461542 327.24991552 -357.35438175 327.25392701 -351.98413074 327.25893438 C-346.19616182 327.26324461 -340.40819407 327.26179205 -334.620224 327.2610321 C-324.58935467 327.26050723 -314.55849183 327.26365019 -304.52762413 327.26926994 C-290.02459333 327.27738992 -275.52156568 327.28000068 -261.01853285 327.28125793 C-237.48948563 327.2833587 -213.9604418 327.29009705 -190.43139648 327.29956055 C-167.57234719 327.30874396 -144.71329882 327.31582807 -121.85424805 327.32006836 C-121.14971129 327.32019989 -120.44517453 327.32033141 -119.71928817 327.32046692 C-112.64408151 327.32178544 -105.56887485 327.32306125 -98.49366817 327.32430578 C-84.08048027 327.32684204 -69.66729243 327.32966329 -55.25410461 327.33265686 C-54.59140029 327.33279415 -53.92869597 327.33293144 -53.2459097 327.33307289 C-8.98685498 327.34227454 35.27219756 327.35834807 79.53125 327.375 C79.53125 305.595 79.53125 283.815 79.53125 261.375 C72.51751633 261.38832367 72.51751633 261.38832367 65.36209106 261.4019165 C22.48259435 261.48151483 -20.39689362 261.54122916 -63.27644806 261.57926132 C-68.89653844 261.58426414 -74.51662864 261.58944143 -80.13671875 261.59472656 C-81.25557619 261.5957758 -82.37443362 261.59682505 -83.52719583 261.59790608 C-101.64290753 261.61531068 -119.75856846 261.6468487 -137.87425004 261.68361118 C-156.46299915 261.72101902 -175.05172166 261.74323553 -193.64050686 261.75135398 C-205.1105257 261.75684206 -216.580401 261.77417498 -228.05037566 261.80666587 C-235.91606903 261.82781178 -243.7816882 261.83419985 -251.64740793 261.82900551 C-256.18534235 261.82644387 -260.72302595 261.83036718 -265.26091576 261.8518219 C-269.41885554 261.8713364 -273.57637667 261.8722384 -277.73433603 261.85859558 C-279.23518542 261.85691028 -280.7360613 261.86194304 -282.23685883 261.87453273 C-294.42345178 261.97078298 -303.44832224 260.15761744 -312.48828125 251.59765625 C-320.55028344 242.54976819 -321.16259773 232.9893955 -320.64794922 221.37011719 C-320.26653639 217.12365177 -318.77036136 213.89934239 -316.46875 210.375 C-316.05625 209.68148437 -315.64375 208.98796875 -315.21875 208.2734375 C-310.37021886 200.91799537 -302.88074511 196.63066613 -294.46875 194.375 C-290.9662307 194.09563468 -287.47730295 194.1221534 -283.96533203 194.14794922 C-282.92082382 194.14765717 -281.87631561 194.14736511 -280.80015564 194.14706421 C-277.35887247 194.14845393 -273.9178077 194.16399852 -270.4765625 194.1796875 C-268.08617267 194.18341889 -265.69578131 194.18626527 -263.3053894 194.18826294 C-257.02209226 194.19588941 -250.73888797 194.21552953 -244.45562744 194.2376709 C-238.04074357 194.25815051 -231.62584466 194.26726919 -225.2109375 194.27734375 C-212.63016878 194.29877626 -200.04946434 194.33251449 -187.46875 194.375 C-187.47763245 193.05670197 -187.48651489 191.73840393 -187.4956665 190.38015747 C-187.57688659 177.93346168 -187.63677998 165.48681994 -187.67599869 153.0399189 C-187.69683951 146.64140876 -187.72509364 140.24311322 -187.77050781 133.84472656 C-187.81408977 127.66554541 -187.83791346 121.4865702 -187.84825897 115.30724716 C-187.85562812 112.95421992 -187.87001824 110.60120347 -187.89167023 108.24826431 C-187.92086756 104.94277167 -187.92469908 101.63812116 -187.92285156 98.33251953 C-187.93723267 97.36794327 -187.95161377 96.403367 -187.96643066 95.40956116 C-187.90667873 85.47678712 -184.44588035 76.55235705 -177.46875 69.375 C-167.66427137 61.453967 -157.70688455 60.23698457 -145.46875 61.375 C-136.86877175 63.13509917 -129.77538776 68.56893223 -124.83203125 75.75390625 C-121.91205181 80.83249514 -120.3416449 85.06461258 -120.34849548 90.95611572 C-120.34712082 91.87034302 -120.34574615 92.78457031 -120.34432983 93.72650146 C-120.34792511 94.72200012 -120.35152039 95.71749878 -120.35522461 96.74316406 C-120.35507858 97.79713379 -120.35493256 98.85110352 -120.3547821 99.93701172 C-120.3554789 103.4215704 -120.36326047 106.90607566 -120.37109375 110.390625 C-120.37295876 112.80629446 -120.37438227 115.2219643 -120.37538147 117.63763428 C-120.37920014 123.99655196 -120.38902492 130.35544681 -120.40008545 136.71435547 C-120.41211171 144.34353158 -120.4167049 151.97271532 -120.42253876 159.60189819 C-120.43223698 171.19294801 -120.45139813 182.78394773 -120.46875 194.375 C-98.68875 194.375 -76.90875 194.375 -54.46875 194.375 C-54.5001709 186.64582153 -54.5001709 186.64582153 -54.53222656 178.76049805 C-54.59852705 161.72932826 -54.64290167 144.69815338 -54.67599869 127.66688824 C-54.69659852 117.34157914 -54.72466975 107.01639256 -54.77050781 96.69116211 C-54.8104546 87.68865445 -54.83620155 78.68623556 -54.84510398 69.68364173 C-54.85030546 64.91955912 -54.86247687 60.15573037 -54.89167023 55.39172935 C-54.91896337 50.90113661 -54.92716709 46.41090059 -54.92118073 41.92023277 C-54.92227478 40.27841244 -54.93014555 38.63657931 -54.9455719 36.99483109 C-55.05951302 24.23515555 -53.62826074 13.02104364 -44.46875 3.375 C-32.17912854 -8.05720601 -14.05257933 -9.24979905 0 0 Z M-532.06570244 467.26239681 C-532.83841864 467.35833452 -533.61113484 467.45427222 -534.40726668 467.55311713 C-537.01211429 467.87714145 -539.61650643 468.20469206 -542.22091675 468.5322113 C-544.10097564 468.76682182 -545.98106143 469.00121682 -547.86117184 469.23541409 C-553.0399476 469.88115322 -558.21833306 470.52997637 -563.39666152 471.17929137 C-568.97663243 471.87842863 -574.55695651 472.57473609 -580.13723755 473.27139282 C-591.07446909 474.6372846 -602.0113694 476.00581135 -612.94816099 477.37522083 C-625.67725915 478.96895084 -638.40667776 480.56011396 -651.1361102 482.15117133 C-674.53265155 485.07560997 -697.92886678 488.00264828 -721.32493117 490.93089957 C-742.686939 493.60455576 -764.04917323 496.27639518 -785.41162109 498.9465332 C-786.78296117 499.11794061 -788.15430124 499.28934803 -789.52564131 499.46075546 C-790.20360199 499.54549546 -790.88156268 499.63023546 -791.58006763 499.71754333 C-794.99276512 500.14410532 -798.40546229 500.57066982 -801.8181591 500.99723721 C-802.49141704 501.08139027 -803.16467499 501.16554333 -803.85833468 501.25224649 C-825.53025445 503.96112558 -847.20194136 506.67186646 -868.87360933 509.38275919 C-877.75145646 510.49324476 -886.62936377 511.60324846 -895.50728989 512.71310234 C-906.32472598 514.06545228 -917.14204533 515.4187318 -927.95921932 516.77317672 C-933.48079066 517.46452856 -939.00240997 518.15549108 -944.52416229 518.84539604 C-949.5761044 519.47661538 -954.62790335 520.1089675 -959.67958893 520.7422365 C-961.50992771 520.97148276 -963.34031864 521.20031306 -965.17076586 521.4286918 C-967.65402561 521.7385838 -970.13709209 522.04998114 -972.62011528 522.36176205 C-973.33479133 522.45058272 -974.04946738 522.5394034 -974.78580028 522.63091561 C-978.70363643 523.12470318 -982.56963766 523.72514794 -986.46875 524.375 C-986.46875 547.475 -986.46875 570.575 -986.46875 594.375 C-832.68875 594.375 -678.90875 594.375 -520.46875 594.375 C-520.46875 552.135 -520.46875 509.895 -520.46875 466.375 C-524.40485581 466.375 -528.17237504 466.76900866 -532.06570244 467.26239681 Z M-1053.46875 661.375 C-1053.46875 1079.155 -1053.46875 1496.935 -1053.46875 1927.375 C-899.68875 1927.375 -745.90875 1927.375 -587.46875 1927.375 C-587.44296875 1862.01695313 -587.4171875 1796.65890625 -587.390625 1729.3203125 C-587.36697377 1690.49531839 -587.34305247 1651.67032826 -587.3140986 1612.84533834 C-587.29662808 1589.39033304 -587.27938192 1565.9353276 -587.26270344 1542.48032172 C-587.26123404 1540.41712047 -587.25975779 1538.35391923 -587.25827987 1536.29071799 C-587.23567484 1504.69794353 -587.21640541 1473.10517154 -587.20697021 1441.51239014 C-587.20676725 1440.83300119 -587.20656429 1440.15361224 -587.20635517 1439.45363574 C-587.20310335 1428.49988039 -587.2001357 1417.54612496 -587.19720577 1406.59236951 C-587.18494633 1360.78306787 -587.15995844 1314.9737928 -587.11767386 1269.16450685 C-587.11179958 1262.79395556 -587.10607478 1256.42340414 -587.10044098 1250.05285263 C-587.09932752 1248.79900937 -587.09821406 1247.54516612 -587.09706686 1246.25332761 C-587.07951195 1226.0518839 -587.07575121 1205.85045992 -587.07712079 1185.64900961 C-587.07820358 1165.35065415 -587.06482102 1145.05234936 -587.03658572 1124.75401314 C-587.02024277 1112.68734403 -587.01507796 1100.62078946 -587.02577825 1088.5541134 C-587.03183032 1080.4980301 -587.02345292 1072.44204598 -587.0032577 1064.38598591 C-586.99215911 1059.7928658 -586.987415 1055.19997896 -587.00023755 1050.60685803 C-587.01178198 1046.42735349 -587.00492068 1042.24829682 -586.9834493 1038.06883518 C-586.97894723 1036.56714536 -586.98111801 1035.06541669 -586.99082924 1033.56375152 C-587.06324055 1021.46766376 -585.25614002 1012.34714488 -576.7578125 1003.35546875 C-545.84807843 976.61274661 -495.33971988 994.76057519 -454.46875 994.375 C-454.46875 884.485 -454.46875 774.595 -454.46875 661.375 C-652.13875 661.375 -849.80875 661.375 -1053.46875 661.375 Z M213.53125 1191.375 C213.53125 1434.255 213.53125 1677.135 213.53125 1927.375 C257.09125 1927.375 300.65125 1927.375 345.53125 1927.375 C346.11765447 1878.27201207 346.11765447 1878.27201207 346.65985107 1829.16853333 C346.66853376 1828.3405953 346.67721644 1827.51265727 346.68616223 1826.65963021 C346.97787859 1798.76743349 347.20881742 1770.87507717 347.39434814 1742.98197937 C347.40345991 1741.61560536 347.40345991 1741.61560536 347.41275575 1740.22162782 C347.54446918 1720.42100942 347.6663535 1700.62034191 347.7781245 1680.81960114 C347.83300332 1671.10815747 347.89005224 1661.39672709 347.94824219 1651.68530273 C347.95399559 1650.71894184 347.95974898 1649.75258094 347.96567673 1648.75693639 C348.15290485 1617.48008441 348.48318265 1586.20674905 348.88832771 1554.93202429 C349.30419992 1522.77051819 349.57439748 1490.61095478 349.66350956 1458.44680556 C349.67618682 1453.89538627 349.69051479 1449.34397356 349.70584869 1444.79256248 C349.71029861 1443.44899839 349.71029861 1443.44899839 349.71483843 1442.07829159 C349.76667362 1427.70596739 349.97026818 1413.33968177 350.23185949 1398.96981292 C350.49211841 1384.49276427 350.58955852 1370.02164744 350.52531061 1355.54234544 C350.49494006 1347.70462033 350.53424599 1339.88306942 350.77629089 1332.04860115 C352.93388794 1300.62371547 352.93388794 1300.62371547 341.31967258 1273.14485145 C332.26658387 1264.58120613 321.42796662 1258.78865383 310.19690917 1253.58986789 C300.25168086 1248.9740728 291.46844579 1242.941465 282.53505906 1236.63048331 C278.22266073 1233.60695272 273.84716459 1230.67674492 269.4765625 1227.73828125 C268.49069153 1227.07269196 267.50482056 1226.40710266 266.48907471 1225.72134399 C255.67119794 1218.43676023 244.79266433 1211.24409499 233.90625 1204.0625 C232.93034912 1203.41764648 231.95444824 1202.77279297 230.94897461 1202.10839844 C228.21510531 1200.30270181 225.47909099 1198.50031213 222.7421875 1196.69921875 C221.92152802 1196.15702194 221.10086853 1195.61482513 220.25534058 1195.05619812 C219.51156158 1194.56803116 218.76778259 1194.0798642 218.00146484 1193.5769043 C217.35172699 1193.14919235 216.70198914 1192.72148041 216.03256226 1192.2808075 C214.68077947 1191.2889001 214.68077947 1191.2889001 213.53125 1191.375 Z " fill="#9399A2" transform="translate(1455.46875,6.625)"/>
<path d="M0 0 C1.62273834 0.00081573 1.62273834 0.00081573 3.27825928 0.00164795 C19.88252318 0.03999781 35.8638262 0.72934527 52.125 4.375 C53.1145166 4.58930664 54.1040332 4.80361328 55.12353516 5.02441406 C87.2827345 12.16628248 117.09710208 26.67461025 141.125 49.375 C142.45441948 50.50462233 143.78763718 51.62979312 145.125 52.75 C170.7753311 75.27099071 193.70541472 113.44674201 199.125 147.375 C190.83316949 149.33468003 182.54050427 151.29077168 174.24674511 153.24227142 C170.3957664 154.1485159 166.54508851 155.0559997 162.69506836 155.96630859 C158.98048819 156.84454573 155.26515718 157.71953672 151.54928017 158.5922699 C150.13081881 158.92602223 148.71263324 159.26094886 147.29472923 159.59706116 C145.31074251 160.06715215 143.32568224 160.53270535 141.34057617 160.99804688 C139.64513924 161.39775696 139.64513924 161.39775696 137.91545105 161.80554199 C135.125 162.375 135.125 162.375 132.125 162.375 C131.93502441 161.81329102 131.74504883 161.25158203 131.54931641 160.67285156 C125.21736251 142.14671939 117.83774333 124.20756306 106.125 108.375 C105.22587891 107.14330078 105.22587891 107.14330078 104.30859375 105.88671875 C83.42017149 78.5442537 54.2635663 64.3069076 20.59359741 59.65682983 C13.25677879 58.81921477 5.8742161 58.88245269 -1.5 58.9375 C-2.3700769 58.94054138 -3.24015381 58.94358276 -4.13659668 58.94671631 C-18.35465925 59.01992479 -32.02169792 59.95846727 -45.875 63.375 C-47.15479736 63.68050781 -47.15479736 63.68050781 -48.46044922 63.9921875 C-66.45900662 68.42934375 -84.04912953 76.16681948 -98.875 87.375 C-99.75671875 88.03628906 -100.6384375 88.69757812 -101.546875 89.37890625 C-137.30596651 117.43842459 -153.35285889 157.41812865 -161.625 201 C-161.82367676 202.03447266 -162.02235352 203.06894531 -162.22705078 204.13476562 C-165.38664078 221.62486965 -166.25666998 239.07113943 -166.1875 256.8125 C-166.18534485 257.81457489 -166.1831897 258.81664978 -166.18096924 259.84909058 C-166.00461661 311.19777836 -157.0798841 368.85536807 -122.875 409.375 C-122.05773437 410.36757812 -121.24046875 411.36015625 -120.3984375 412.3828125 C-96.83342435 439.6498821 -59.36542867 455.99944445 -23.875 459.375 C-21.16657175 459.49619556 -18.48203663 459.58388348 -15.7734375 459.61328125 C-15.02279526 459.6230751 -14.27215302 459.63286896 -13.49876404 459.64295959 C3.04003992 459.81431578 19.04851171 459.7731898 35.125 455.375 C35.91310059 455.16069336 36.70120117 454.94638672 37.51318359 454.72558594 C60.00078351 448.36928841 79.46589988 436.63921774 96.125 420.375 C96.84042969 419.72144531 97.55585938 419.06789063 98.29296875 418.39453125 C119.90880674 398.15934559 130.23989078 368.02731596 138.125 340.375 C138.66471436 338.4863623 138.66471436 338.4863623 139.21533203 336.55957031 C139.51552246 335.50866211 139.81571289 334.45775391 140.125 333.375 C154.58078975 336.476466 168.91444258 340.0126543 183.25 343.625 C185.48041291 344.18511824 187.71088133 344.74501546 189.94140625 345.3046875 C195.3365784 346.65891803 200.73106565 348.01584814 206.125 349.375 C207.18313381 353.31911489 207.00686662 355.81685997 205.82421875 359.70703125 C205.51170166 360.74093994 205.19918457 361.77484863 204.87719727 362.84008789 C204.52584717 363.94473389 204.17449707 365.04937988 203.8125 366.1875 C203.45148193 367.33661865 203.09046387 368.4857373 202.71850586 369.66967773 C193.41753035 398.54561722 180.0780927 426.28642131 160.125 449.375 C159.43148438 450.17808594 158.73796875 450.98117187 158.0234375 451.80859375 C123.26614745 491.17153177 75.59802982 514.39034319 23.125 518.375 C19.3851009 518.52442188 15.64887652 518.56136224 11.90625 518.578125 C10.85826736 518.58513931 9.81028473 518.59215363 8.73054504 518.59938049 C5.36198598 518.61681173 1.99360253 518.62323375 -1.375 518.625 C-3.09790756 518.62601212 -3.09790756 518.62601212 -4.85562134 518.62704468 C-21.39285523 518.61157757 -37.55654694 518.30683878 -53.875 515.375 C-54.85710449 515.20871094 -55.83920898 515.04242187 -56.85107422 514.87109375 C-92.68772745 508.6775291 -126.43799732 494.55959203 -153.875 470.375 C-155.33292969 469.09882813 -155.33292969 469.09882813 -156.8203125 467.796875 C-178.5537067 448.48953411 -194.70960216 424.69454261 -206.875 398.375 C-207.22771973 397.61977051 -207.58043945 396.86454102 -207.94384766 396.08642578 C-242.84457664 320.57337961 -247.57003331 225.94823013 -219.78515625 147.43359375 C-216.62288421 138.86683165 -212.869408 130.58203378 -208.875 122.375 C-208.51680176 121.63797852 -208.15860352 120.90095703 -207.78955078 120.14160156 C-197.49044057 99.24171384 -183.78766747 81.28816453 -167.875 64.375 C-167.22015625 63.66601562 -166.5653125 62.95703125 -165.890625 62.2265625 C-152.65413755 48.36784701 -135.63364833 37.38478559 -118.875 28.375 C-118.26849609 28.0464502 -117.66199219 27.71790039 -117.03710938 27.37939453 C-96.24207121 16.22519736 -73.69861685 8.86383574 -50.625 4.125 C-49.89466553 3.97385742 -49.16433105 3.82271484 -48.41186523 3.66699219 C-32.31301099 0.55776388 -16.35718135 -0.03095641 0 0 Z " fill="#9399A2" transform="translate(392.875,2470.625)"/>
<path d="M0 0 C2.66523362 0.01610855 5.32895175 0.00002203 7.99414062 -0.01904297 C23.36494921 -0.03873973 38.45642134 1.67287392 53.22851562 6.07861328 C54.0936377 6.33280029 54.95875977 6.5869873 55.85009766 6.84887695 C74.46172767 12.53170056 91.95767822 21.58941221 106.66601562 34.39111328 C107.87644531 35.4371875 107.87644531 35.4371875 109.11132812 36.50439453 C111.66853641 38.76099055 114.17416243 41.06259802 116.66601562 43.39111328 C117.55289062 44.21224609 118.43976563 45.03337891 119.35351562 45.87939453 C153.87343054 78.97732431 167.62241818 129.83350478 168.66601562 176.39111328 C168.73929046 180.99533426 168.77502361 185.59885342 168.79101562 190.20361328 C168.79814575 191.93285034 168.79814575 191.93285034 168.80541992 193.69702148 C168.80324463 194.77814209 168.80106934 195.8592627 168.79882812 196.97314453 C168.7977002 197.94485596 168.79657227 198.91656738 168.79541016 199.91772461 C168.66601562 202.39111328 168.66601562 202.39111328 167.66601562 205.39111328 C78.56601563 205.39111328 -10.53398438 205.39111328 -102.33398438 205.39111328 C-97.48940945 244.14771272 -89.46723195 281.24079942 -57.33398438 306.39111328 C-33.3580031 324.29766997 -4.72915565 329.09121813 24.6015625 326.09082031 C46.45483625 322.80445635 67.38164018 311.12911055 80.63500977 293.30834961 C82.7238616 290.38586794 84.71377912 287.406167 86.66601562 284.39111328 C87.30410156 283.41271484 87.9421875 282.43431641 88.59960938 281.42626953 C93.03830494 274.21956783 96.19430015 266.63626846 99.28320312 258.78564453 C100.66601562 255.39111328 100.66601562 255.39111328 101.66601562 254.39111328 C109.15276922 254.07458582 116.37874935 254.95880176 123.79492188 255.92236328 C125.64028786 256.15542175 125.64028786 256.15542175 127.52293396 256.39318848 C131.42547968 256.88726915 135.32698682 257.38907213 139.22851562 257.89111328 C141.88527306 258.22949338 144.54225032 258.56610926 147.19921875 258.90283203 C153.68890802 259.72640099 160.17776364 260.5563007 166.66601562 261.39111328 C166.19280011 263.30950778 165.71785718 265.22747622 165.2421875 267.14526367 C164.9778894 268.21337784 164.71359131 269.281492 164.44128418 270.38197327 C157.9500933 295.57698743 143.5328803 317.84541636 125.66601562 336.39111328 C125.0240625 337.09623047 124.38210938 337.80134766 123.72070312 338.52783203 C99.53098226 364.34067269 60.84726949 377.81123533 26.19940186 379.51220703 C20.62036286 379.69172572 15.04347422 379.71940873 9.46191406 379.70678711 C6.56601784 379.70364045 3.67116058 379.72713045 0.77539062 379.75244141 C-43.71531427 379.90424814 -85.12926269 365.44402089 -117.33398438 334.39111328 C-118.10097656 333.68728516 -118.86796875 332.98345703 -119.65820312 332.25830078 C-153.72705854 300.08555761 -166.11194862 249.97013479 -167.4440918 204.64477539 C-168.30902661 147.65761488 -158.88744074 91.16488771 -118.33398438 48.39111328 C-117.44066406 47.43333984 -116.54734375 46.47556641 -115.62695312 45.48876953 C-97.14979155 26.06873528 -72.64586035 12.5309795 -46.83398438 5.57861328 C-46.16069092 5.39588867 -45.48739746 5.21316406 -44.79370117 5.02490234 C-29.9937977 1.32962242 -15.22243196 -0.1088912 0 0 Z M-41.33398438 61.39111328 C-42.23117187 61.82037109 -43.12835937 62.24962891 -44.05273438 62.69189453 C-67.86853196 74.83932002 -84.81645085 96.19394943 -93.51171875 121.24609375 C-96.9268311 131.77777483 -99.33398438 143.29733366 -99.33398438 154.39111328 C-32.67398437 154.39111328 33.98601562 154.39111328 102.66601562 154.39111328 C98.94565577 122.76805451 91.46502388 95.15826786 66.66601562 73.39111328 C36.61689496 49.6723407 -6.72510796 44.43475285 -41.33398438 61.39111328 Z " fill="#9399A2" transform="translate(1325.333984375,2609.60888671875)"/>
<path d="M0 0 C1.40298843 -0.00855011 1.40298843 -0.00855011 2.83432007 -0.01727295 C4.81271247 -0.02668125 6.79112026 -0.03324025 8.76953125 -0.03710938 C11.71644714 -0.04668973 14.66262606 -0.07770017 17.609375 -0.109375 C57.06313329 -0.33005833 98.87539234 9.19771255 128.3359375 36.890625 C140.24434847 49.27613577 147.32246375 65.03390179 151.9609375 81.390625 C152.1559082 82.07801758 152.35087891 82.76541016 152.55175781 83.47363281 C154.27467632 89.96116546 155.20372379 96.56454437 156.1484375 103.203125 C148.76633072 104.20837753 141.38300532 105.20428347 133.9987793 106.19384766 C131.4893777 106.53123803 128.98025764 106.8707295 126.47143555 107.21240234 C122.85538394 107.70448951 119.23837137 108.18889303 115.62109375 108.671875 C114.50823502 108.82499146 113.39537628 108.97810791 112.24879456 109.13586426 C106.15224322 109.94158533 100.29790004 110.36131053 94.1484375 110.203125 C93.81972656 108.67945312 93.81972656 108.67945312 93.484375 107.125 C89.48557794 89.42406139 81.7782914 74.36991256 66.1484375 64.203125 C53.00458471 56.75107994 39.10746093 53.0893739 23.96875 53 C23.19771942 52.99429993 22.42668884 52.98859985 21.6322937 52.98272705 C20.0035741 52.97332542 18.37483589 52.96676244 16.74609375 52.96289062 C14.31474203 52.95328813 11.88427525 52.92226258 9.453125 52.890625 C-11.2013309 52.75150682 -33.97681993 55.83894181 -49.7265625 70.515625 C-57.91522155 79.42504622 -61.38465229 88.89973143 -61.1640625 100.921875 C-60.19460723 111.10115532 -54.48558053 119.3861676 -46.7890625 125.828125 C-36.00970613 133.57279993 -23.69741547 136.9682907 -11.07150269 140.41043091 C-8.07934189 141.22622351 -5.09127791 142.05580365 -2.10375977 142.88842773 C4.31009274 144.67294333 10.72897638 146.43891097 17.1484375 148.203125 C123.31614008 177.40597846 123.31614008 177.40597846 147.1484375 201.203125 C147.81617188 201.85925781 148.48390625 202.51539062 149.171875 203.19140625 C165.11503611 220.03632986 170.21213129 243.70556952 170.1484375 266.203125 C169.19816862 295.70356075 156.63429699 322.90113707 135.1484375 343.203125 C108.33225469 367.07867444 70.17428085 379.24515606 34.67578125 379.40625 C33.67623917 379.41195007 32.67669708 379.41765015 31.64686584 379.42352295 C29.53143354 379.43293633 27.41598682 379.4394923 25.30053711 379.44335938 C22.14734199 379.45293846 18.99483588 379.48394363 15.84179688 379.515625 C-21.63206761 379.71187322 -59.18223947 372.2168736 -88.8515625 348.203125 C-89.52832031 347.66816406 -90.20507812 347.13320312 -90.90234375 346.58203125 C-114.57506487 327.21344124 -127.43954464 295.5154205 -132.8515625 266.203125 C-132.8515625 264.883125 -132.8515625 263.563125 -132.8515625 262.203125 C-125.14819419 260.91348048 -117.44339532 259.63266288 -109.73754883 258.35791016 C-107.11729787 257.92403743 -104.49764974 257.48690869 -101.87817383 257.04833984 C-98.10844347 256.41754831 -94.3375716 255.79402248 -90.56640625 255.171875 C-88.81601295 254.87657898 -88.81601295 254.87657898 -87.03025818 254.57531738 C-81.56872639 253.68118286 -76.38755326 252.9513301 -70.8515625 253.203125 C-70.54863281 254.43546875 -70.24570313 255.6678125 -69.93359375 256.9375 C-64.03673979 280.44638631 -55.10479 301.12929551 -33.57519531 314.21435547 C-19.6191917 322.22027822 -3.01733378 326.2650239 13.00390625 326.44140625 C13.73941711 326.45115479 14.47492798 326.46090332 15.23272705 326.47094727 C38.45865928 326.73451174 38.45865928 326.73451174 61.1484375 322.203125 C62.97761719 321.64238281 62.97761719 321.64238281 64.84375 321.0703125 C80.55568811 315.56566597 92.3289663 305.91164931 100.1484375 291.203125 C105.11393061 280.67159241 106.14581626 268.5191816 102.7109375 257.328125 C97.3680677 244.8614288 86.70089108 238.46737343 74.7734375 233.328125 C57.85630587 226.67347781 39.85862109 222.63707992 22.30064392 218.0486908 C-89.16964662 188.91581474 -89.16964662 188.91581474 -111.03515625 151.58984375 C-123.7727094 127.84047047 -126.44840351 101.1675286 -118.7265625 75.265625 C-110.64660668 49.96389022 -92.37577799 29.42221373 -69.08007812 16.96240234 C-48.11066866 6.26551948 -23.51775088 0.11435458 0 0 Z " fill="#9399A2" transform="translate(1675.8515625,2609.796875)"/>
<path d="M0 0 C0 41.91 0 83.82 0 127 C20.46 127 40.92 127 62 127 C62 142.84 62 158.68 62 175 C41.54 175 21.08 175 0 175 C0.08358082 203.77354706 0.17417673 232.54703931 0.28005161 261.32051235 C0.29256907 264.72474234 0.30500207 268.12897264 0.31738281 271.53320312 C0.31984881 272.21086633 0.3223148 272.88852953 0.32485552 273.58672798 C0.36447747 284.53020151 0.39727131 295.47368524 0.42749982 306.41718829 C0.45871744 317.66317875 0.49751432 328.90912619 0.54279006 340.1550703 C0.56795543 346.46459426 0.58976578 352.77408827 0.60334396 359.08364868 C0.61625515 365.03273527 0.63840563 370.98171864 0.66738319 376.93074799 C0.67638863 379.1041934 0.68213257 381.2776554 0.68421364 383.45111847 C-0.42218637 407.77080216 -0.42218637 407.77080216 9 429 C15.29205617 433.83317248 20.71828364 436.12376817 28.62109375 436.1328125 C29.71631348 436.13474609 30.8115332 436.13667969 31.93994141 436.13867188 C33.09413574 436.13416016 34.24833008 436.12964844 35.4375 436.125 C36.60716309 436.12306641 37.77682617 436.12113281 38.98193359 436.11914062 C46.6977219 436.08045961 54.32723742 435.86978685 62 435 C64.49510382 447.50339737 66.71605655 460.03943736 68.75 472.625 C68.86250092 473.31643097 68.97500183 474.00786194 69.09091187 474.72024536 C69.4124535 476.70105122 69.72974762 478.68254513 70.046875 480.6640625 C70.32289551 482.38810303 70.32289551 482.38810303 70.60449219 484.14697266 C71 487 71 487 71 490 C69.14834522 490.46837811 67.29342986 490.92385941 65.4375 491.375 C63.88869141 491.75785156 63.88869141 491.75785156 62.30859375 492.1484375 C49.50485959 494.8509614 36.84278914 495.40472403 23.8125 495.375 C22.52598038 495.37468277 22.52598038 495.37468277 21.21347046 495.37435913 C8.48623142 495.34304379 -3.77993219 494.9156984 -16 491 C-17.14210938 490.63777344 -18.28421875 490.27554688 -19.4609375 489.90234375 C-26.84125969 487.1602845 -32.96464475 483.00730648 -39 478 C-39.86753906 477.28199219 -40.73507812 476.56398438 -41.62890625 475.82421875 C-59.81382512 459.30509397 -60.66130586 434.99500097 -62 412 C-62.30376615 403.84227439 -62.25530594 395.68148299 -62.22705078 387.51953125 C-62.22648472 385.18104558 -62.22680701 382.84255956 -62.22793579 380.5040741 C-62.22850272 374.23913399 -62.21685706 367.97427261 -62.20278788 361.70935059 C-62.19145231 355.80021397 -62.18953212 349.89107985 -62.18748413 343.98193383 C-62.18313594 332.29865096 -62.16990612 320.61539644 -62.15087891 308.93212891 C-62.1324448 297.60107563 -62.11832546 286.27003014 -62.10986328 274.93896484 C-62.10907511 273.88654596 -62.10907511 273.88654596 -62.10827102 272.81286609 C-62.10566043 269.29213648 -62.10313314 265.77140681 -62.10064721 262.25067711 C-62.08000455 233.16709646 -62.04318419 204.08355696 -62 175 C-76.85 175 -91.7 175 -107 175 C-107 159.16 -107 143.32 -107 127 C-92.15 127 -77.3 127 -62 127 C-62.37125 120.65136719 -62.7425 114.30273438 -63.125 107.76171875 C-63.28885542 103.70010674 -63.44282179 99.64264944 -63.5625 95.58007812 C-63.75286395 89.14887988 -63.97585087 82.73244588 -64.4140625 76.31274414 C-66.65484982 42.61605808 -66.65484982 42.61605808 -60.60640335 34.01924515 C-53.45886974 26.33435869 -43.55255452 22.33368446 -33.94447327 18.6309967 C-28.1567523 16.3476985 -23.11148551 12.99313044 -17.9375 9.5625 C-16.34525864 8.55932697 -14.7507091 7.55979282 -13.15234375 6.56640625 C-12.44964355 6.1295752 -11.74694336 5.69274414 -11.02294922 5.24267578 C-2.48840864 0 -2.48840864 0 0 0 Z " fill="#9399A2" transform="translate(902,2491)"/>
<path d="M0 0 C20.79 0 41.58 0 63 0 C63 119.79 63 239.58 63 363 C42.21 363 21.42 363 0 363 C0 243.21 0 123.42 0 0 Z " fill="#9399A2" transform="translate(1024,2618)"/>
<path d="M0 0 C20.79 0 41.58 0 63 0 C63 119.79 63 239.58 63 363 C42.21 363 21.42 363 0 363 C0 243.21 0 123.42 0 0 Z " fill="#9399A2" transform="translate(674,2618)"/>
<path d="M0 0 C20.79 0 41.58 0 63 0 C63 23.1 63 46.2 63 70 C42.21 70 21.42 70 0 70 C0 46.9 0 23.8 0 0 Z " fill="#9399A2" transform="translate(1024,2480)"/>
<path d="M0 0 C20.79 0 41.58 0 63 0 C63 23.1 63 46.2 63 70 C42.21 70 21.42 70 0 70 C0 46.9 0 23.8 0 0 Z " fill="#9399A2" transform="translate(674,2480)"/>
<path d="M0 0 C6.44409144 5.48118122 11.05452233 13.2673295 12.0390625 21.734375 C12.85002615 32.77139243 10.28427526 42.2163546 3.0390625 50.734375 C-4.83695316 58.06611315 -13.59905504 61.10380204 -24.28125 60.9453125 C-33.31652759 60.23408074 -41.54989132 56.47287875 -47.75 49.8125 C-54.43648389 41.31440717 -56.80595638 32.46924447 -55.9609375 21.734375 C-54.33979685 12.749409 -50.24823915 5.04400576 -43.0234375 -0.640625 C-29.49230278 -9.9626472 -13.3325909 -9.51654898 0 0 Z " fill="#9399A2" transform="translate(656.9609375,1541.265625)"/>
<path d="M0 0 C6.44409144 5.48118122 11.05452233 13.2673295 12.0390625 21.734375 C12.85002615 32.77139243 10.28427526 42.2163546 3.0390625 50.734375 C-4.83695316 58.06611315 -13.59905504 61.10380204 -24.28125 60.9453125 C-33.31652759 60.23408074 -41.54989132 56.47287875 -47.75 49.8125 C-54.43648389 41.31440717 -56.80595638 32.46924447 -55.9609375 21.734375 C-54.33979685 12.749409 -50.24823915 5.04400576 -43.0234375 -0.640625 C-29.49230278 -9.9626472 -13.3325909 -9.51654898 0 0 Z " fill="#9399A2" transform="translate(656.9609375,1141.265625)"/>
<path d="M0 0 C6.44409144 5.48118122 11.05452233 13.2673295 12.0390625 21.734375 C12.85002615 32.77139243 10.28427526 42.2163546 3.0390625 50.734375 C-4.83695316 58.06611315 -13.59905504 61.10380204 -24.28125 60.9453125 C-33.31652759 60.23408074 -41.54989132 56.47287875 -47.75 49.8125 C-54.43648389 41.31440717 -56.80595638 32.46924447 -55.9609375 21.734375 C-54.33979685 12.749409 -50.24823915 5.04400576 -43.0234375 -0.640625 C-29.49230278 -9.9626472 -13.3325909 -9.51654898 0 0 Z " fill="#9399A2" transform="translate(656.9609375,741.265625)"/>
<path d="M0 0 C6.91175582 5.52940466 11.92024658 13.58452483 13.53125 22.375 C14.38161798 32.61212222 12.80323355 41.50484315 6.19140625 49.5625 C-0.74129657 57.13138025 -7.52352102 61.39932468 -17.91748047 61.94946289 C-28.84061258 62.18299815 -37.13564246 59.56501234 -45.40625 52.125 C-52.38733682 44.44409763 -54.86922996 35.51323485 -54.74609375 25.34765625 C-53.87341717 15.99403831 -49.42967234 7.98981148 -42.62109375 1.65625 C-30.3605997 -8.28864378 -13.1458929 -8.6529928 0 0 Z " fill="#9399A2" transform="translate(655.46875,1806.625)"/>
<path d="M0 0 C6.53390271 5.34226881 11.16910746 11.86746928 12.6875 20.25 C13.76999093 31.52928822 12.37888282 41.07327147 5.1875 50.0625 C-0.71277529 56.24004387 -9.1702933 60.73978475 -17.7578125 61.453125 C-29.42200332 61.65716332 -37.60193287 58.72756133 -46 50.62109375 C-53.14278202 42.92474612 -54.98388321 35.35519601 -54.92358398 25.06201172 C-54.54187156 16.03033947 -51.08769309 9.01033935 -45.0625 2.3125 C-32.18192931 -9.39450759 -14.07268819 -9.79202258 0 0 Z " fill="#9399A2" transform="translate(789.3125,1540.75)"/>
<path d="M0 0 C7.25127851 5.14606862 13.67406649 11.88822483 15.80859375 20.7109375 C17.43234846 33.01728896 15.85963008 42.76067079 8.203125 52.8203125 C2.23278243 59.45717788 -5.89692121 63.11286338 -14.69921875 63.94921875 C-24.43906708 64.2254234 -32.81778741 61.61003877 -40.41015625 55.40234375 C-48.13967892 48.06268736 -51.27057853 40.42394377 -51.62890625 29.8359375 C-51.35843369 19.78517704 -48.60620404 12.04419383 -41.61328125 4.72265625 C-29.86348977 -5.03725119 -13.52424389 -7.95543758 0 0 Z " fill="#9399A2" transform="translate(519.19140625,1538.2890625)"/>
<path d="M0 0 C6.91175582 5.52940466 11.92024658 13.58452483 13.53125 22.375 C14.38161798 32.61212222 12.80323355 41.50484315 6.19140625 49.5625 C-0.74129657 57.13138025 -7.52352102 61.39932468 -17.91748047 61.94946289 C-28.84061258 62.18299815 -37.13564246 59.56501234 -45.40625 52.125 C-52.38733682 44.44409763 -54.86922996 35.51323485 -54.74609375 25.34765625 C-53.87341717 15.99403831 -49.42967234 7.98981148 -42.62109375 1.65625 C-30.3605997 -8.28864378 -13.1458929 -8.6529928 0 0 Z " fill="#9399A2" transform="translate(655.46875,1406.625)"/>
<path d="M0 0 C6.53390271 5.34226881 11.16910746 11.86746928 12.6875 20.25 C13.76999093 31.52928822 12.37888282 41.07327147 5.1875 50.0625 C-0.71277529 56.24004387 -9.1702933 60.73978475 -17.7578125 61.453125 C-29.42200332 61.65716332 -37.60193287 58.72756133 -46 50.62109375 C-53.14278202 42.92474612 -54.98388321 35.35519601 -54.92358398 25.06201172 C-54.54187156 16.03033947 -51.08769309 9.01033935 -45.0625 2.3125 C-32.18192931 -9.39450759 -14.07268819 -9.79202258 0 0 Z " fill="#9399A2" transform="translate(789.3125,1140.75)"/>
<path d="M0 0 C7.25127851 5.14606862 13.67406649 11.88822483 15.80859375 20.7109375 C17.43234846 33.01728896 15.85963008 42.76067079 8.203125 52.8203125 C2.23278243 59.45717788 -5.89692121 63.11286338 -14.69921875 63.94921875 C-24.43906708 64.2254234 -32.81778741 61.61003877 -40.41015625 55.40234375 C-48.13967892 48.06268736 -51.27057853 40.42394377 -51.62890625 29.8359375 C-51.35843369 19.78517704 -48.60620404 12.04419383 -41.61328125 4.72265625 C-29.86348977 -5.03725119 -13.52424389 -7.95543758 0 0 Z " fill="#9399A2" transform="translate(519.19140625,1138.2890625)"/>
<path d="M0 0 C6.91175582 5.52940466 11.92024658 13.58452483 13.53125 22.375 C14.38161798 32.61212222 12.80323355 41.50484315 6.19140625 49.5625 C-0.74129657 57.13138025 -7.52352102 61.39932468 -17.91748047 61.94946289 C-28.84061258 62.18299815 -37.13564246 59.56501234 -45.40625 52.125 C-52.38733682 44.44409763 -54.86922996 35.51323485 -54.74609375 25.34765625 C-53.87341717 15.99403831 -49.42967234 7.98981148 -42.62109375 1.65625 C-30.3605997 -8.28864378 -13.1458929 -8.6529928 0 0 Z " fill="#9399A2" transform="translate(655.46875,1006.625)"/>
<path d="M0 0 C7.25127851 5.14606862 13.67406649 11.88822483 15.80859375 20.7109375 C17.43234846 33.01728896 15.85963008 42.76067079 8.203125 52.8203125 C2.23278243 59.45717788 -5.89692121 63.11286338 -14.69921875 63.94921875 C-24.43906708 64.2254234 -32.81778741 61.61003877 -40.41015625 55.40234375 C-48.13967892 48.06268736 -51.27057853 40.42394377 -51.62890625 29.8359375 C-51.35843369 19.78517704 -48.60620404 12.04419383 -41.61328125 4.72265625 C-29.86348977 -5.03725119 -13.52424389 -7.95543758 0 0 Z " fill="#9399A2" transform="translate(919.19140625,738.2890625)"/>
<path d="M0 0 C6.53390271 5.34226881 11.16910746 11.86746928 12.6875 20.25 C13.76999093 31.52928822 12.37888282 41.07327147 5.1875 50.0625 C-0.71277529 56.24004387 -9.1702933 60.73978475 -17.7578125 61.453125 C-29.42200332 61.65716332 -37.60193287 58.72756133 -46 50.62109375 C-53.14278202 42.92474612 -54.98388321 35.35519601 -54.92358398 25.06201172 C-54.54187156 16.03033947 -51.08769309 9.01033935 -45.0625 2.3125 C-32.18192931 -9.39450759 -14.07268819 -9.79202258 0 0 Z " fill="#9399A2" transform="translate(789.3125,740.75)"/>
<path d="M0 0 C7.25127851 5.14606862 13.67406649 11.88822483 15.80859375 20.7109375 C17.43234846 33.01728896 15.85963008 42.76067079 8.203125 52.8203125 C2.23278243 59.45717788 -5.89692121 63.11286338 -14.69921875 63.94921875 C-24.43906708 64.2254234 -32.81778741 61.61003877 -40.41015625 55.40234375 C-48.13967892 48.06268736 -51.27057853 40.42394377 -51.62890625 29.8359375 C-51.35843369 19.78517704 -48.60620404 12.04419383 -41.61328125 4.72265625 C-29.86348977 -5.03725119 -13.52424389 -7.95543758 0 0 Z " fill="#9399A2" transform="translate(519.19140625,738.2890625)"/>
<path d="M0 0 C7.59344621 5.38466076 12.82553016 12.04181228 15.09765625 21.24609375 C16.72912247 31.85886388 14.91288309 41.19472352 8.734375 50.07421875 C3.39210619 56.60812146 -3.13309428 61.24332621 -11.515625 62.76171875 C-22.79491322 63.84420968 -32.33889647 62.45310157 -41.328125 55.26171875 C-47.50566887 49.36144346 -52.00540975 40.90392545 -52.71875 32.31640625 C-52.92278832 20.65221543 -49.99318633 12.47228588 -41.88671875 4.07421875 C-30.4471018 -6.54259513 -13.42553079 -7.9551833 0 0 Z " fill="#9399A2" transform="translate(653.515625,1672.23828125)"/>
<path d="M0 0 C7.59344621 5.38466076 12.82553016 12.04181228 15.09765625 21.24609375 C16.72912247 31.85886388 14.91288309 41.19472352 8.734375 50.07421875 C3.39210619 56.60812146 -3.13309428 61.24332621 -11.515625 62.76171875 C-22.79491322 63.84420968 -32.33889647 62.45310157 -41.328125 55.26171875 C-47.50566887 49.36144346 -52.00540975 40.90392545 -52.71875 32.31640625 C-52.92278832 20.65221543 -49.99318633 12.47228588 -41.88671875 4.07421875 C-30.4471018 -6.54259513 -13.42553079 -7.9551833 0 0 Z " fill="#9399A2" transform="translate(653.515625,1272.23828125)"/>
<path d="M0 0 C7.59344621 5.38466076 12.82553016 12.04181228 15.09765625 21.24609375 C16.72912247 31.85886388 14.91288309 41.19472352 8.734375 50.07421875 C3.39210619 56.60812146 -3.13309428 61.24332621 -11.515625 62.76171875 C-22.79491322 63.84420968 -32.33889647 62.45310157 -41.328125 55.26171875 C-47.50566887 49.36144346 -52.00540975 40.90392545 -52.71875 32.31640625 C-52.92278832 20.65221543 -49.99318633 12.47228588 -41.88671875 4.07421875 C-30.4471018 -6.54259513 -13.42553079 -7.9551833 0 0 Z " fill="#9399A2" transform="translate(653.515625,872.23828125)"/>
<path d="M0 0 C8.12941838 5.71854502 14.13019267 13.04602569 16 23 C16.90391631 34.76573037 15.21040948 43.87388029 7.76953125 53.1796875 C1.45425514 59.67619669 -5.98288511 63.18763452 -15.06445312 63.38085938 C-26.61721774 63.34988682 -34.3912985 61.39275275 -43.01953125 53.22265625 C-51.08153344 44.17476819 -51.69384773 34.6143955 -51.17919922 22.99511719 C-50.79778639 18.74865177 -49.30161136 15.52434239 -47 12 C-46.5875 11.30648438 -46.175 10.61296875 -45.75 9.8984375 C-35.98044524 -4.92242115 -15.12887723 -8.42764783 0 0 Z " fill="#9399A2" transform="translate(786,1805)"/>
<path d="M0 0 C5.93103457 4.74242643 9.80800224 11.00352662 11.75 18.3125 C12.78866543 30.53493509 12.08774541 40.33772466 4.0625 50.125 C-1.86083465 56.38048426 -8.44706729 60.01077096 -17.04296875 60.55078125 C-25.20599307 60.75687603 -32.18875948 60.92392238 -39.25 56.3125 C-40.29027344 55.69375 -40.29027344 55.69375 -41.3515625 55.0625 C-48.72828324 50.19994251 -52.94557905 42.73411112 -55.25 34.3125 C-56.25099474 23.83697363 -55.55207048 15.27056094 -49.33203125 6.65625 C-36.49059648 -8.79892814 -16.61060453 -11.25133401 0 0 Z " fill="#9399A2" transform="translate(523.25,1807.6875)"/>
<path d="M0 0 C7.93469056 4.98551354 13.72525614 11.19757665 16.8125 20.140625 C18.46824443 29.56689281 18.5490638 40.2067314 13.20703125 48.38671875 C12.79453125 49.08023437 12.38203125 49.77375 11.95703125 50.48828125 C7.08562236 57.87842996 -0.36797592 62.05527419 -8.79296875 64.38671875 C-19.00516184 65.43851349 -28.01556288 64.45076787 -36.51953125 58.46875 C-43.2683513 52.84473329 -48.14601946 46.15430171 -49.79296875 37.38671875 C-50.75105487 24.91589289 -48.71023842 16.04889676 -40.71875 6.36328125 C-30.71086432 -3.90850406 -12.84624569 -6.23710396 0 0 Z " fill="#9399A2" transform="translate(517.79296875,1670.61328125)"/>
<path d="M0 0 C8.12941838 5.71854502 14.13019267 13.04602569 16 23 C16.90391631 34.76573037 15.21040948 43.87388029 7.76953125 53.1796875 C1.45425514 59.67619669 -5.98288511 63.18763452 -15.06445312 63.38085938 C-26.61721774 63.34988682 -34.3912985 61.39275275 -43.01953125 53.22265625 C-51.08153344 44.17476819 -51.69384773 34.6143955 -51.17919922 22.99511719 C-50.79778639 18.74865177 -49.30161136 15.52434239 -47 12 C-46.5875 11.30648438 -46.175 10.61296875 -45.75 9.8984375 C-35.98044524 -4.92242115 -15.12887723 -8.42764783 0 0 Z " fill="#9399A2" transform="translate(786,1405)"/>
<path d="M0 0 C5.93103457 4.74242643 9.80800224 11.00352662 11.75 18.3125 C12.78866543 30.53493509 12.08774541 40.33772466 4.0625 50.125 C-1.86083465 56.38048426 -8.44706729 60.01077096 -17.04296875 60.55078125 C-25.20599307 60.75687603 -32.18875948 60.92392238 -39.25 56.3125 C-40.29027344 55.69375 -40.29027344 55.69375 -41.3515625 55.0625 C-48.72828324 50.19994251 -52.94557905 42.73411112 -55.25 34.3125 C-56.25099474 23.83697363 -55.55207048 15.27056094 -49.33203125 6.65625 C-36.49059648 -8.79892814 -16.61060453 -11.25133401 0 0 Z " fill="#9399A2" transform="translate(523.25,1407.6875)"/>
<path d="M0 0 C7.93469056 4.98551354 13.72525614 11.19757665 16.8125 20.140625 C18.46824443 29.56689281 18.5490638 40.2067314 13.20703125 48.38671875 C12.79453125 49.08023437 12.38203125 49.77375 11.95703125 50.48828125 C7.08562236 57.87842996 -0.36797592 62.05527419 -8.79296875 64.38671875 C-19.00516184 65.43851349 -28.01556288 64.45076787 -36.51953125 58.46875 C-43.2683513 52.84473329 -48.14601946 46.15430171 -49.79296875 37.38671875 C-50.75105487 24.91589289 -48.71023842 16.04889676 -40.71875 6.36328125 C-30.71086432 -3.90850406 -12.84624569 -6.23710396 0 0 Z " fill="#9399A2" transform="translate(517.79296875,1270.61328125)"/>
<path d="M0 0 C8.12941838 5.71854502 14.13019267 13.04602569 16 23 C16.90391631 34.76573037 15.21040948 43.87388029 7.76953125 53.1796875 C1.45425514 59.67619669 -5.98288511 63.18763452 -15.06445312 63.38085938 C-26.61721774 63.34988682 -34.3912985 61.39275275 -43.01953125 53.22265625 C-51.08153344 44.17476819 -51.69384773 34.6143955 -51.17919922 22.99511719 C-50.79778639 18.74865177 -49.30161136 15.52434239 -47 12 C-46.5875 11.30648437 -46.175 10.61296875 -45.75 9.8984375 C-35.98044524 -4.92242115 -15.12887723 -8.42764783 0 0 Z " fill="#9399A2" transform="translate(786,1005)"/>
<path d="M0 0 C5.93103457 4.74242643 9.80800224 11.00352662 11.75 18.3125 C12.78866543 30.53493509 12.08774541 40.33772466 4.0625 50.125 C-1.86083465 56.38048426 -8.44706729 60.01077096 -17.04296875 60.55078125 C-25.20599307 60.75687603 -32.18875948 60.92392238 -39.25 56.3125 C-40.29027344 55.69375 -40.29027344 55.69375 -41.3515625 55.0625 C-48.72828324 50.19994251 -52.94557905 42.73411112 -55.25 34.3125 C-56.25099474 23.83697363 -55.55207048 15.27056094 -49.33203125 6.65625 C-36.49059648 -8.79892814 -16.61060453 -11.25133401 0 0 Z " fill="#9399A2" transform="translate(523.25,1007.6875)"/>
<path d="M0 0 C7.93469056 4.98551354 13.72525614 11.19757665 16.8125 20.140625 C18.46824443 29.56689281 18.5490638 40.2067314 13.20703125 48.38671875 C12.79453125 49.08023438 12.38203125 49.77375 11.95703125 50.48828125 C7.08562236 57.87842996 -0.36797592 62.05527419 -8.79296875 64.38671875 C-19.00516184 65.43851349 -28.01556288 64.45076787 -36.51953125 58.46875 C-43.2683513 52.84473329 -48.14601946 46.15430171 -49.79296875 37.38671875 C-50.75105487 24.91589289 -48.71023842 16.04889676 -40.71875 6.36328125 C-30.71086432 -3.90850406 -12.84624569 -6.23710396 0 0 Z " fill="#9399A2" transform="translate(917.79296875,870.61328125)"/>
<path d="M0 0 C7.93469056 4.98551354 13.72525614 11.19757665 16.8125 20.140625 C18.46824443 29.56689281 18.5490638 40.2067314 13.20703125 48.38671875 C12.79453125 49.08023438 12.38203125 49.77375 11.95703125 50.48828125 C7.08562236 57.87842996 -0.36797592 62.05527419 -8.79296875 64.38671875 C-19.00516184 65.43851349 -28.01556288 64.45076787 -36.51953125 58.46875 C-43.2683513 52.84473329 -48.14601946 46.15430171 -49.79296875 37.38671875 C-50.75105487 24.91589289 -48.71023842 16.04889676 -40.71875 6.36328125 C-30.71086432 -3.90850406 -12.84624569 -6.23710396 0 0 Z " fill="#9399A2" transform="translate(517.79296875,870.61328125)"/>
<path d="M0 0 C0.69351563 0.4125 1.38703125 0.825 2.1015625 1.25 C9.49171121 6.12140889 13.66855544 13.57500717 16 22 C17.05179474 32.21219309 16.06404912 41.22259413 10.08203125 49.7265625 C4.45801454 56.47538255 -2.23241704 61.35305071 -11 63 C-22.76573037 63.90391631 -31.87388029 62.21040948 -41.1796875 54.76953125 C-47.67619669 48.45425514 -51.18763452 41.01711489 -51.38085938 31.93554688 C-51.34988682 20.38278226 -49.39275275 12.6087015 -41.22265625 3.98046875 C-30.5128422 -5.56237083 -12.28142622 -8.02052325 0 0 Z " fill="#9399A2" transform="translate(786,1672)"/>
<path d="M0 0 C0.69351563 0.4125 1.38703125 0.825 2.1015625 1.25 C9.49171121 6.12140889 13.66855544 13.57500717 16 22 C17.05179474 32.21219309 16.06404912 41.22259413 10.08203125 49.7265625 C4.45801454 56.47538255 -2.23241704 61.35305071 -11 63 C-22.76573037 63.90391631 -31.87388029 62.21040948 -41.1796875 54.76953125 C-47.67619669 48.45425514 -51.18763452 41.01711489 -51.38085938 31.93554688 C-51.34988682 20.38278226 -49.39275275 12.6087015 -41.22265625 3.98046875 C-30.5128422 -5.56237083 -12.28142622 -8.02052325 0 0 Z " fill="#9399A2" transform="translate(786,1272)"/>
<path d="M0 0 C0.69351563 0.4125 1.38703125 0.825 2.1015625 1.25 C9.49171121 6.12140889 13.66855544 13.57500717 16 22 C17.05179474 32.21219309 16.06404912 41.22259413 10.08203125 49.7265625 C4.45801454 56.47538255 -2.23241704 61.35305071 -11 63 C-22.76573037 63.90391631 -31.87388029 62.21040948 -41.1796875 54.76953125 C-47.67619669 48.45425514 -51.18763452 41.01711489 -51.38085938 31.93554688 C-51.34988682 20.38278226 -49.39275275 12.6087015 -41.22265625 3.98046875 C-30.5128422 -5.56237083 -12.28142622 -8.02052325 0 0 Z " fill="#9399A2" transform="translate(786,872)"/>
</svg>
