<?xml version="1.0" encoding="UTF-8"?>
<svg version="1.1" xmlns="http://www.w3.org/2000/svg" width="512" height="512">
<path d="M0 0 C0.97582031 -0.04253906 1.95164062 -0.08507813 2.95703125 -0.12890625 C9.92465268 1.36235009 14.01431746 5.90871252 17.79296875 11.73046875 C19.001189 13.72845492 20.19461755 15.73544243 21.375 17.75 C22.68163454 19.90952872 23.99157926 22.06705776 25.3046875 24.22265625 C25.95405273 25.29273926 26.60341797 26.36282227 27.27246094 27.46533203 C31.94814427 35.02725436 37.08264808 42.28669882 42.1875 49.5625 C42.60773438 50.16642578 43.02796875 50.77035156 43.4609375 51.39257812 C50.10369029 60.93339463 57.16130345 70.15170638 64.23046875 79.37890625 C67.15808208 83.20354423 70.05156756 87.05107839 72.92236328 90.91845703 C77.89335702 97.61384255 83.04209502 104.12459218 88.33496094 110.56811523 C92.57280979 115.74918238 96.61443586 121.05342552 100.60205078 126.4284668 C104.34817754 131.47038895 108.18829366 136.43103011 112.0625 141.375 C129.08487002 163.19243676 144.91106524 185.84468471 159.1875 209.5625 C159.72866455 210.44736084 159.72866455 210.44736084 160.28076172 211.35009766 C171.59341173 229.96809532 180.60358216 250.49977262 186.1875 271.5625 C186.38279297 272.29645996 186.57808594 273.03041992 186.77929688 273.78662109 C190.87351732 289.49147173 192.60235443 304.80561622 192.5625 321 C192.56168427 322.25198685 192.56168427 322.25198685 192.56085205 323.52926636 C192.51997846 337.21456214 191.55246778 350.24662525 188.1875 363.5625 C187.96255859 364.46726074 187.73761719 365.37202148 187.50585938 366.30419922 C181.47316096 390.00705351 171.68654158 412.7499695 157.1875 432.5625 C156.45402344 433.57957031 155.72054688 434.59664063 154.96484375 435.64453125 C150.35402353 441.90595082 145.35103958 447.73882588 140.0625 453.4375 C139.50095215 454.04376221 138.9394043 454.65002441 138.36083984 455.2746582 C110.69621352 484.56637917 72.5737925 503.41476908 33.1875 510.5625 C32.28306152 510.73910156 31.37862305 510.91570312 30.44677734 511.09765625 C20.57501048 512.85068921 10.80658911 512.96060934 0.8125 512.9375 C-0.07200836 512.93695618 -0.95651672 512.93641235 -1.86782837 512.93585205 C-15.86348777 512.89633013 -29.2000135 512.04604121 -42.8125 508.5625 C-43.71436035 508.33755859 -44.6162207 508.11261719 -45.54541016 507.88085938 C-69.25232627 501.84924168 -91.99675505 492.06389395 -111.8125 477.5625 C-112.82957031 476.82902344 -113.84664063 476.09554688 -114.89453125 475.33984375 C-121.15595082 470.72902353 -126.98882588 465.72603958 -132.6875 460.4375 C-133.29376221 459.87595215 -133.90002441 459.3144043 -134.5246582 458.73583984 C-163.80993161 431.07730293 -182.67793541 392.94578747 -189.8125 353.5625 C-189.98910156 352.64573486 -190.16570312 351.72896973 -190.34765625 350.78442383 C-192.02259111 341.263466 -192.21327884 331.88699126 -192.1875 322.25 C-192.1862915 321.41279419 -192.18508301 320.57558838 -192.18383789 319.7130127 C-192.06290838 288.7417848 -184.40938628 260.35963058 -170.8125 232.5625 C-170.14657678 231.16563076 -169.48119361 229.76850391 -168.81640625 228.37109375 C-160.35950472 210.81738939 -149.80064806 194.61824146 -138.8125 178.5625 C-138.30460937 177.82 -137.79671875 177.0775 -137.2734375 176.3125 C-130.07438273 165.84114761 -122.44057018 155.7222805 -114.703125 145.64453125 C-111.28255294 141.18825812 -107.91501962 136.69504258 -104.5625 132.1875 C-100.2842849 126.45019895 -95.87172457 120.83841758 -91.37744141 115.26928711 C-87.09480484 109.95034966 -82.93977581 104.54079236 -78.80664062 99.10522461 C-75.44490929 94.68721974 -72.05093328 90.29701494 -68.62768555 85.92651367 C-49.75740318 61.82018138 -32.42843002 36.75844038 -16.27734375 10.75390625 C-11.90388532 4.21121244 -8.22109825 0.16162054 0 0 Z M-0.8125 48.5625 C-2.31203535 50.36783082 -2.31203535 50.36783082 -3.83203125 52.7421875 C-4.43539307 53.64227539 -5.03875488 54.54236328 -5.66040039 55.46972656 C-6.6328772 56.93877441 -6.6328772 56.93877441 -7.625 58.4375 C-8.99293824 60.47260121 -10.362758 62.50643888 -11.734375 64.5390625 C-12.76594727 66.06901855 -12.76594727 66.06901855 -13.81835938 67.62988281 C-22.44882972 80.32199958 -31.75727764 92.48444908 -41.23583984 104.54931641 C-43.44704398 107.37272758 -45.6305912 110.21637674 -47.8125 113.0625 C-51.72781319 118.16330082 -55.67246031 123.24050463 -59.625 128.3125 C-64.75979619 134.90326654 -69.85454019 141.52290845 -74.91723633 148.16918945 C-78.26070648 152.5524682 -81.64057508 156.90490377 -85.04345703 161.2421875 C-96.45812152 175.81061383 -107.22010312 190.78272781 -117.32861328 206.28710938 C-118.31784846 207.80400176 -119.31101905 209.31833495 -120.30810547 210.83007812 C-142.1418304 243.99630916 -159.31799403 280.62417917 -159.1875 321 C-159.1862915 321.69770508 -159.18508301 322.39541016 -159.18383789 323.11425781 C-158.98141339 366.46272486 -140.55792754 404.61959149 -110.8125 435.5625 C-108.25319918 438.04517504 -105.58812909 440.32549824 -102.8125 442.5625 C-101.86890625 443.33207031 -100.9253125 444.10164063 -99.953125 444.89453125 C-81.84926365 459.39622308 -61.24879933 469.6953592 -38.8125 475.5625 C-38.00844727 475.77422852 -37.20439453 475.98595703 -36.37597656 476.20410156 C3.52189655 486.1904395 47.15152082 478.49352877 82.1875 457.5625 C97.0606972 448.5720152 111.25638406 437.12561999 122.1875 423.5625 C122.95707031 422.61890625 123.72664063 421.6753125 124.51953125 420.703125 C152.07273339 386.30580385 163.24329253 343.87059022 158.71484375 300.21875 C158.14473749 295.92686134 157.25651833 291.75559016 156.1875 287.5625 C155.99945801 286.80211426 155.81141602 286.04172852 155.61767578 285.25830078 C148.78988846 258.44144636 135.79246824 233.29352973 120.43212891 210.41845703 C119.32271213 208.76412468 118.22862719 207.09953405 117.13671875 205.43359375 C107.107269 190.17138762 96.25897009 175.55904609 85.12744141 161.08886719 C83.3110106 158.72334668 81.50308162 156.35167451 79.69921875 153.9765625 C74.10911822 146.62147164 68.43908758 139.34674883 62.63793945 132.15698242 C58.50764411 127.01538063 54.54729323 121.75787686 50.61254883 116.46582031 C47.41323302 112.17089123 44.14500767 107.94215564 40.8125 103.75 C27.29984586 86.69328487 14.39435991 68.95302876 2.7109375 50.58984375 C2.20820313 49.92082031 1.70546875 49.25179687 1.1875 48.5625 C0.5275 48.5625 -0.1325 48.5625 -0.8125 48.5625 Z " fill="#A4A2A2" transform="translate(255.8125,-0.5625)"/>
<path d="M0 0 C4.8846525 2.26787438 7.73212562 5.1153475 10 10 C10.8447111 16.27499676 10.96863677 21.02837122 7.27669334 26.34793997 C4.89859948 29.42522853 2.15195266 32.12197819 -0.60424805 34.85821533 C-1.26637897 35.52346623 -1.92850988 36.18871713 -2.61070538 36.87412715 C-4.82298282 39.09436001 -7.04231385 41.30740147 -9.26171875 43.52050781 C-10.85227248 45.11377244 -12.44240061 46.70746205 -14.03213501 48.30154419 C-18.34553578 52.62405799 -22.66523339 56.94022713 -26.98636246 61.25501347 C-31.50651685 65.77010405 -36.02178922 70.29007258 -40.5378418 74.80926514 C-48.60587265 82.88116674 -56.67893214 90.94801322 -64.75398433 99.012889 C-72.07547228 106.3254358 -79.39169212 113.643219 -86.70410156 120.96484375 C-95.19984559 129.47128937 -103.6989351 137.97436557 -112.20298862 146.47250628 C-116.70326934 150.96966611 -121.20218103 155.46817311 -125.69760132 159.97019196 C-129.92179992 164.2001578 -134.15084178 168.42522031 -138.38370895 172.64651108 C-139.93828259 174.19843515 -141.49114741 175.75207307 -143.04219437 177.30752182 C-145.15546551 179.42623779 -147.27476754 181.53872897 -149.39575195 183.64971924 C-150.01170573 184.27013446 -150.62765951 184.89054968 -151.26227856 185.52976537 C-151.83208604 186.09435735 -152.40189352 186.65894934 -152.9889679 187.24065018 C-153.47739827 187.72875585 -153.96582865 188.21686152 -154.46905994 188.71975827 C-158.99733391 192.50650698 -163.38341237 192.42349806 -169.0859375 192.3125 C-174.38740101 191.74397844 -176.83972495 189.22134216 -180.375 185.5 C-182.72325726 180.44221514 -182.97097307 175.48314207 -182 170 C-179.08502507 165.03713558 -175.46493252 161.18149156 -171.39575195 157.14178467 C-170.40255558 156.14390832 -170.40255558 156.14390832 -169.38929462 155.12587285 C-167.17701718 152.90563999 -164.95768615 150.69259853 -162.73828125 148.47949219 C-161.14772752 146.88622756 -159.55759939 145.29253795 -157.96786499 143.69845581 C-153.65446422 139.37594201 -149.33476661 135.05977287 -145.01363754 130.74498653 C-140.49348315 126.22989595 -135.97821078 121.70992742 -131.4621582 117.19073486 C-123.39412735 109.11883326 -115.32106786 101.05198678 -107.24601567 92.987111 C-99.92452772 85.6745642 -92.60830788 78.356781 -85.29589844 71.03515625 C-76.80015441 62.52871063 -68.3010649 54.02563443 -59.79701138 45.52749372 C-55.29673066 41.03033389 -50.79781897 36.53182689 -46.30239868 32.02980804 C-42.07820008 27.7998422 -37.84915822 23.57477969 -33.61629105 19.35348892 C-32.06171741 17.80156485 -30.50885259 16.24792693 -28.95780563 14.69247818 C-26.84453449 12.57376221 -24.72523246 10.46127103 -22.60424805 8.35028076 C-21.98829427 7.72986554 -21.37234049 7.10945032 -20.73772144 6.47023463 C-20.16791396 5.90564265 -19.59810648 5.34105066 -19.0110321 4.75934982 C-18.27838654 4.02719132 -18.27838654 4.02719132 -17.53094006 3.28024173 C-12.35107988 -1.05139302 -6.437114 -0.69030713 0 0 Z " fill="#A4A2A2" transform="translate(342,224)"/>
<path d="M0 0 C1.22396484 0.65162109 1.22396484 0.65162109 2.47265625 1.31640625 C12.49559581 7.3508004 18.99990959 16.14031679 23 27 C23.36351562 27.90105469 23.72703125 28.80210937 24.1015625 29.73046875 C27.38382885 41.67506412 25.78430985 55.18318714 20 66 C19.56558594 66.81597656 19.13117188 67.63195312 18.68359375 68.47265625 C12.6491996 78.49559581 3.85968321 84.99990959 -7 89 C-7.90105469 89.36351562 -8.80210937 89.72703125 -9.73046875 90.1015625 C-21.67506412 93.38382885 -35.18318714 91.78430985 -46 86 C-46.81597656 85.56558594 -47.63195312 85.13117188 -48.47265625 84.68359375 C-58.49559581 78.6491996 -64.99990959 69.85968321 -69 59 C-69.36351562 58.09894531 -69.72703125 57.19789063 -70.1015625 56.26953125 C-73.38382885 44.32493588 -71.78430985 30.81681286 -66 20 C-65.56558594 19.18402344 -65.13117188 18.36804688 -64.68359375 17.52734375 C-58.6491996 7.50440419 -49.85968321 1.00009041 -39 -3 C-38.09894531 -3.36351562 -37.19789063 -3.72703125 -36.26953125 -4.1015625 C-24.32493588 -7.38382885 -10.81681286 -5.78430985 0 0 Z M-36.375 34.625 C-38.57907893 39.20270239 -38.7971639 43.00552411 -38 48 C-35.67031069 52.83858548 -32.83858548 55.67031069 -28 58 C-23.00552411 58.7971639 -19.20270239 58.57907893 -14.625 56.375 C-11.04092287 53.13226355 -8.40464759 50.53524104 -7.6171875 45.6015625 C-7.36116081 39.91777006 -8.06373068 36.35061345 -12 32 C-16.35061345 28.06373068 -19.91777006 27.36116081 -25.6015625 27.6171875 C-30.53524104 28.40464759 -33.13226355 31.04092287 -36.375 34.625 Z " fill="#A4A2A2" transform="translate(327,357)"/>
<path d="M0 0 C1.22396484 0.65162109 1.22396484 0.65162109 2.47265625 1.31640625 C12.49559581 7.3508004 18.99990959 16.14031679 23 27 C23.36351562 27.90105469 23.72703125 28.80210937 24.1015625 29.73046875 C27.38382885 41.67506412 25.78430985 55.18318714 20 66 C19.56558594 66.81597656 19.13117188 67.63195312 18.68359375 68.47265625 C12.6491996 78.49559581 3.85968321 84.99990959 -7 89 C-7.90105469 89.36351562 -8.80210937 89.72703125 -9.73046875 90.1015625 C-21.67506412 93.38382885 -35.18318714 91.78430985 -46 86 C-46.81597656 85.56558594 -47.63195312 85.13117188 -48.47265625 84.68359375 C-58.49559581 78.6491996 -64.99990959 69.85968321 -69 59 C-69.36351562 58.09894531 -69.72703125 57.19789063 -70.1015625 56.26953125 C-73.38382885 44.32493588 -71.78430985 30.81681286 -66 20 C-65.56558594 19.18402344 -65.13117188 18.36804688 -64.68359375 17.52734375 C-58.6491996 7.50440419 -49.85968321 1.00009041 -39 -3 C-38.09894531 -3.36351562 -37.19789063 -3.72703125 -36.26953125 -4.1015625 C-24.32493588 -7.38382885 -10.81681286 -5.78430985 0 0 Z M-36.375 34.625 C-38.57907893 39.20270239 -38.7971639 43.00552411 -38 48 C-35.67031069 52.83858548 -32.83858548 55.67031069 -28 58 C-23.00552411 58.7971639 -19.20270239 58.57907893 -14.625 56.375 C-11.04092287 53.13226355 -8.40464759 50.53524104 -7.6171875 45.6015625 C-7.36116081 39.91777006 -8.06373068 36.35061345 -12 32 C-16.35061345 28.06373068 -19.91777006 27.36116081 -25.6015625 27.6171875 C-30.53524104 28.40464759 -33.13226355 31.04092287 -36.375 34.625 Z " fill="#A4A2A2" transform="translate(231,197)"/>
</svg>
