<?xml version="1.0" encoding="UTF-8"?>
<svg version="1.1" xmlns="http://www.w3.org/2000/svg" width="256" height="256">
<path d="M0 0 C-1.08311902 2.21831108 -2.21508623 4.37756985 -3.4375 6.5234375 C-8.9129591 16.51615035 -11.49018768 26.97533817 -8.890625 38.2734375 C-4.62121839 51.34381389 1.84917523 59.75371664 14 66 C22.43947539 70.23622104 32.25353023 71.02040957 41.4140625 68.87109375 C46.5431075 67.14333388 51.24908701 64.56354249 56 62 C57.33067028 61.32803361 58.66288613 60.65905138 60 60 C59.77381492 71.30925399 53.13673682 81.88670013 45.44140625 89.81640625 C34.40676374 99.68579051 21.69345171 103.92522416 7 104 C3.94696979 103.81394276 1.02788858 103.46188131 -2 103 C-2.33 104.32 -2.66 105.64 -3 107 C-1.72125 106.773125 -0.4425 106.54625 0.875 106.3125 C8.30097564 105.5068517 15.49625632 107.75627269 21.3984375 112.34375 C28.06374327 119.23665157 30.39790741 126.71944461 30.2734375 136.0546875 C29.58145346 143.5083442 26.4849123 149.17469596 21.26953125 154.4296875 C12.91911387 160.20742896 5.13686596 160.57906318 -4.81616211 160.51757812 C-6.29878931 160.52300711 -7.78141112 160.53013411 -9.26402283 160.53881836 C-13.26830189 160.55696424 -17.27216604 160.55002025 -21.27645183 160.53730202 C-25.48115142 160.52712688 -29.6858171 160.53658034 -33.89051819 160.54284668 C-40.95075817 160.55011081 -48.01083044 160.54056876 -55.07104492 160.52148438 C-63.21398432 160.49972638 -71.35652287 160.50676406 -79.49945253 160.52879 C-86.51038268 160.5469894 -93.52119272 160.54947996 -100.53213888 160.53903532 C-104.71082817 160.53282417 -108.88932957 160.5318986 -113.06800652 160.54518127 C-116.99904155 160.55680527 -120.92956407 160.54859591 -124.8605442 160.52560425 C-126.29635648 160.5203515 -127.73221249 160.52177154 -129.1680069 160.53065491 C-140.85059571 160.59622685 -149.76320143 158.63408605 -158.890625 151.125 C-166.86416368 143.09239807 -170.84203123 133.21578278 -171 122 C-170.20483397 110.83822494 -166.62031823 101.55596073 -158.38671875 93.82421875 C-153.03047625 89.73033127 -146.63845356 86.37510824 -140 85 C-139.86464844 84.15179688 -139.72929687 83.30359375 -139.58984375 82.4296875 C-137.11532011 68.94575627 -132.22693936 56.53450594 -121 48 C-108.03447923 39.72752049 -95.57516504 36.79520666 -80.390625 39.6875 C-70.998318 42.33322028 -63.55106178 46.74071533 -57 54 C-56.49597656 54.5465625 -55.99195312 55.093125 -55.47265625 55.65625 C-48 63.98762225 -48 63.98762225 -48 69 C-44.535 68.505 -44.535 68.505 -41 68 C-41.32355469 67.22140625 -41.64710938 66.4428125 -41.98046875 65.640625 C-43.29750895 60.93763086 -43.32977993 56.60911527 -43.3125 51.75 C-43.32861328 50.85925781 -43.34472656 49.96851563 -43.36132812 49.05078125 C-43.37130664 35.30038842 -37.62808824 23.03935967 -28.26171875 13.06640625 C-20.85161085 6.29620404 -10.35577201 -0.45741042 0 0 Z " fill="#5086FE" transform="translate(183,48)"/>
<path d="M0 0 C-1.08311902 2.21831108 -2.21508623 4.37756985 -3.4375 6.5234375 C-8.9129591 16.51615035 -11.49018768 26.97533817 -8.890625 38.2734375 C-4.62121839 51.34381389 1.84917523 59.75371664 14 66 C22.43947539 70.23622104 32.25353023 71.02040957 41.4140625 68.87109375 C46.5431075 67.14333388 51.24908701 64.56354249 56 62 C57.33067028 61.32803361 58.66288613 60.65905138 60 60 C59.77381492 71.30925399 53.13673682 81.88670013 45.44140625 89.81640625 C33.75175857 100.27162713 19.83036472 104.63787325 4.25 103.86328125 C-1.37275896 103.31362052 -1.37275896 103.31362052 -4 102 C-4.43462965 99.88639004 -4.79653812 97.7576891 -5.125 95.625 C-6.9589407 86.58431746 -11.14747234 79.28230592 -18.875 74 C-25.78576347 70.26005741 -33.2440467 68.71814382 -41 68 C-43.26907811 62.53974829 -43.33316894 57.56210688 -43.3125 51.75 C-43.32861328 50.85925781 -43.34472656 49.96851563 -43.36132812 49.05078125 C-43.37130664 35.30038842 -37.62808824 23.03935967 -28.26171875 13.06640625 C-20.85161085 6.29620404 -10.35577201 -0.45741042 0 0 Z " fill="#FEBA12" transform="translate(183,48)"/>
</svg>
